<?xml version="1.0" encoding="UTF-8" standalone="no"?>
<!-- Created with Inkscape (http://www.inkscape.org/) -->

<svg
   xmlns:ns0="http://www.iki.fi/pav/software/textext/"
   xmlns:dc="http://purl.org/dc/elements/1.1/"
   xmlns:cc="http://creativecommons.org/ns#"
   xmlns:rdf="http://www.w3.org/1999/02/22-rdf-syntax-ns#"
   xmlns:svg="http://www.w3.org/2000/svg"
   xmlns="http://www.w3.org/2000/svg"
   xmlns:xlink="http://www.w3.org/1999/xlink"
   xmlns:sodipodi="http://sodipodi.sourceforge.net/DTD/sodipodi-0.dtd"
   xmlns:inkscape="http://www.inkscape.org/namespaces/inkscape"
   inkscape:version="0.48.4 r9939"
   version="1.1"
   id="svg3107"
   height="297mm"
   width="210mm"
   sodipodi:docname="New document 2">
  <sodipodi:namedview
     inkscape:document-units="mm"
     id="base"
     pagecolor="#ffffff"
     bordercolor="#666666"
     borderopacity="1.0"
     inkscape:pageopacity="0.0"
     inkscape:pageshadow="2"
     inkscape:zoom="0.73"
     inkscape:cx="455.65861"
     inkscape:cy="569.04103"
     inkscape:current-layer="layer1"
     showgrid="false"
     inkscape:window-width="1920"
     inkscape:window-height="1030"
     inkscape:window-x="0"
     inkscape:window-y="0"
     inkscape:window-maximized="1" />
  <defs
     id="defs3" />
  <metadata
     id="metadata4">
    <rdf:RDF>
      <cc:Work
         rdf:about="">
        <dc:format>image/svg+xml</dc:format>
        <dc:type
           rdf:resource="http://purl.org/dc/dcmitype/StillImage" />
        <dc:title></dc:title>
      </cc:Work>
    </rdf:RDF>
  </metadata>
  <g
     id="layer1"
     inkscape:groupmode="layer"
     inkscape:label="Layer 1">
    <path
       inkscape:connector-curvature="0"
       id="path3113"
       d="m 78.793219,27.563757 c 0,982.277843 0,982.277843 0,982.277843 l 433.600511,0 0,-978.806882"
       style="fill:none;stroke:#000000;stroke-width:1.26615834px;stroke-linecap:butt;stroke-linejoin:miter;stroke-opacity:1" />
    <path
       inkscape:connector-curvature="0"
       id="path3119"
       d="m 79.84673,482.51723 32.95633,0 0,-42.75345"
       style="fill:none;stroke:#000000;stroke-width:1.13078058px;stroke-linecap:butt;stroke-linejoin:miter;stroke-opacity:1" />
    <path
       inkscape:connector-curvature="0"
       id="path3121"
       d="m 147.53116,439.91783 0,43.6027 65.40406,0 0,-43.6027"
       style="fill:none;stroke:#000000;stroke-width:1.43888903px;stroke-linecap:butt;stroke-linejoin:miter;stroke-opacity:1" />
    <path
       inkscape:connector-curvature="0"
       id="path3121-4"
       d="m 245.63724,439.22018 0,43.6027 65.40405,0 0,-43.6027"
       style="fill:none;stroke:#000000;stroke-width:1.43888903px;stroke-linecap:butt;stroke-linejoin:miter;stroke-opacity:1" />
    <path
       inkscape:connector-curvature="0"
       id="path3121-9"
       d="m 350.86157,439.52897 0,43.6027 65.40405,0 0,-43.6027"
       style="fill:none;stroke:#000000;stroke-width:1.43888903px;stroke-linecap:butt;stroke-linejoin:miter;stroke-opacity:1" />
    <path
       inkscape:connector-curvature="0"
       id="path3157"
       d="m 453.81113,441.86834 0,40.65091 45.87488,0"
       style="fill:none;stroke:#000000;stroke-width:1.26164448px;stroke-linecap:butt;stroke-linejoin:miter;stroke-opacity:1" />
    <path
       sodipodi:nodetypes="ccc"
       inkscape:connector-curvature="0"
       id="path3159"
       d="m 97.53911,438.94005 c 6.7533,-12.13726 18.67691,-11.41979 30.67205,-13.07335 13.90539,1.68404 25.28861,4.21685 31.17487,16.59308"
       style="fill:none;stroke:#000000;stroke-width:1.43888903px;stroke-linecap:butt;stroke-linejoin:miter;stroke-opacity:1" />
    <path
       sodipodi:nodetypes="ccc"
       inkscape:connector-curvature="0"
       id="path3159-6"
       d="m 196.34336,438.68863 c 6.75329,-12.13726 18.67691,-11.41979 30.67205,-13.07334 13.90539,1.68403 25.28862,4.21685 31.17487,16.59308"
       style="fill:none;stroke:#000000;stroke-width:1.43888903px;stroke-linecap:butt;stroke-linejoin:miter;stroke-opacity:1" />
    <path
       sodipodi:nodetypes="ccc"
       inkscape:connector-curvature="0"
       id="path3159-3"
       d="m 299.42157,437.18017 c 6.7533,-12.13726 18.67691,-11.41979 30.67205,-13.07334 13.9054,1.68403 25.28862,4.21685 31.17487,16.59308"
       style="fill:none;stroke:#000000;stroke-width:1.43888903px;stroke-linecap:butt;stroke-linejoin:miter;stroke-opacity:1" />
    <path
       sodipodi:nodetypes="ccc"
       inkscape:connector-curvature="0"
       id="path3159-0"
       d="m 401.99697,437.18018 c 6.75329,-12.13726 18.67691,-11.41978 30.67205,-13.07334 13.90539,1.68403 25.28862,4.21685 31.17487,16.59308"
       style="fill:none;stroke:#000000;stroke-width:1.43888903px;stroke-linecap:butt;stroke-linejoin:miter;stroke-opacity:1" />
    <path
       inkscape:connector-curvature="0"
       id="path3119-1"
       d="m 512.53263,248.09442 -32.95633,0 0,-42.75345"
       style="fill:none;stroke:#000000;stroke-width:1.13078058px;stroke-linecap:butt;stroke-linejoin:miter;stroke-opacity:1" />
    <path
       inkscape:connector-curvature="0"
       id="path3121-6"
       d="m 444.84819,205.49502 0,43.60269 -65.40405,0 0,-43.60269"
       style="fill:none;stroke:#000000;stroke-width:1.43888903px;stroke-linecap:butt;stroke-linejoin:miter;stroke-opacity:1" />
    <path
       inkscape:connector-curvature="0"
       id="path3121-4-6"
       d="m 346.7421,204.79737 0,43.6027 -65.40405,0 0,-43.6027"
       style="fill:none;stroke:#000000;stroke-width:1.43888903px;stroke-linecap:butt;stroke-linejoin:miter;stroke-opacity:1" />
    <path
       inkscape:connector-curvature="0"
       id="path3121-9-7"
       d="m 241.51777,205.10616 0,43.60269 -65.40405,0 0,-43.60269"
       style="fill:none;stroke:#000000;stroke-width:1.43888903px;stroke-linecap:butt;stroke-linejoin:miter;stroke-opacity:1" />
    <path
       inkscape:connector-curvature="0"
       id="path3157-6"
       d="m 138.47412,207.53962 0,41.22036 -59.743306,0"
       style="fill:none;stroke:#000000;stroke-width:1.44982266px;stroke-linecap:butt;stroke-linejoin:miter;stroke-opacity:1" />
    <path
       sodipodi:nodetypes="ccc"
       inkscape:connector-curvature="0"
       id="path3159-2"
       d="m 494.84025,204.51723 c -6.7533,-12.13726 -18.67691,-11.41978 -30.67205,-13.07334 -13.9054,1.68403 -25.28862,4.21685 -31.17487,16.59308"
       style="fill:none;stroke:#000000;stroke-width:1.43888903px;stroke-linecap:butt;stroke-linejoin:miter;stroke-opacity:1" />
    <path
       sodipodi:nodetypes="ccc"
       inkscape:connector-curvature="0"
       id="path3159-6-2"
       d="m 396.03599,204.26582 c -6.75329,-12.13726 -18.6769,-11.41979 -30.67206,-13.07335 -13.90539,1.68403 -25.28862,4.21685 -31.17487,16.59308"
       style="fill:none;stroke:#000000;stroke-width:1.43888903px;stroke-linecap:butt;stroke-linejoin:miter;stroke-opacity:1" />
    <path
       sodipodi:nodetypes="ccc"
       inkscape:connector-curvature="0"
       id="path3159-3-2"
       d="m 292.95777,202.75736 c -6.7533,-12.13726 -18.67691,-11.41979 -30.67205,-13.07335 -13.9054,1.68404 -25.28862,4.21685 -31.17487,16.59308"
       style="fill:none;stroke:#000000;stroke-width:1.43888903px;stroke-linecap:butt;stroke-linejoin:miter;stroke-opacity:1" />
    <path
       sodipodi:nodetypes="ccc"
       inkscape:connector-curvature="0"
       id="path3159-0-5"
       d="m 190.38237,202.75737 c -6.75329,-12.13726 -18.67691,-11.41979 -30.67205,-13.07334 -13.90539,1.68403 -25.28861,4.21685 -31.17486,16.59308"
       style="fill:none;stroke:#000000;stroke-width:1.43888903px;stroke-linecap:butt;stroke-linejoin:miter;stroke-opacity:1" />
    <path
       inkscape:connector-curvature="0"
       id="path3239"
       d="m 79.06819,665.62828 432.81698,0"
       style="fill:none;stroke:#000000;stroke-width:1.42747104px;stroke-linecap:butt;stroke-linejoin:miter;stroke-opacity:1" />
    <path
       style="fill:none;stroke:#000000;stroke-width:1.43888903px;stroke-linecap:butt;stroke-linejoin:miter;stroke-opacity:1"
       d="m 78.936043,221.70417 59.595447,0"
       id="path4846"
       inkscape:connector-curvature="0" />
    <path
       style="fill:none;stroke:#000000;stroke-width:1.43888903px;stroke-linecap:butt;stroke-linejoin:miter;stroke-opacity:1"
       d="m 175.1252,221.70417 65.86866,0"
       id="path4848"
       inkscape:connector-curvature="0" />
    <path
       style="fill:none;stroke:#000000;stroke-width:1.43888903px;stroke-linecap:butt;stroke-linejoin:miter;stroke-opacity:1"
       d="m 281.7697,220.65863 64.82312,0"
       id="path4850"
       inkscape:connector-curvature="0" />
    <path
       style="fill:none;stroke:#000000;stroke-width:1.43888903px;stroke-linecap:butt;stroke-linejoin:miter;stroke-opacity:1"
       d="m 379.00438,220.65863 64.82314,0"
       id="path4852"
       inkscape:connector-curvature="0" />
    <path
       style="fill:#4d4d4d;stroke:#000000;stroke-width:1.43888903px;stroke-linecap:butt;stroke-linejoin:miter;stroke-opacity:1"
       d="m 479.37567,221.70417 33.45711,0"
       id="path4854"
       inkscape:connector-curvature="0" />
    <path
       style="fill:#4d4d4d;fill-opacity:1;stroke:#575757;stroke-width:0;stroke-linejoin:miter;stroke-miterlimit:4;stroke-opacity:1;stroke-dasharray:none"
       d="m 79.65553,235.40053 0,-12.54641 28.75218,0 28.7522,0 0,12.54641 0,12.54642 -28.7522,0 -28.75218,0 0,-12.54642 z"
       id="path4856"
       inkscape:connector-curvature="0" />
    <path
       style="fill:#4d4d4d;fill-opacity:1;stroke:#575757;stroke-width:0;stroke-linejoin:miter;stroke-miterlimit:4;stroke-opacity:1;stroke-dasharray:none"
       d="m 176.89021,235.40053 0,-12.54641 31.8888,0 31.88879,0 0,12.54641 0,12.54642 -31.88879,0 -31.8888,0 0,-12.54642 z"
       id="path4858"
       inkscape:connector-curvature="0" />
    <path
       style="fill:#4d4d4d;fill-opacity:1;stroke:#575757;stroke-width:0;stroke-linejoin:miter;stroke-miterlimit:4;stroke-opacity:1;stroke-dasharray:none"
       d="m 282.48919,234.355 0,-12.54642 31.36602,0 31.36603,0 0,12.54642 0,12.54641 -31.36603,0 -31.36602,0 0,-12.54641 z"
       id="path4860"
       inkscape:connector-curvature="0" />
    <path
       style="fill:#4d4d4d;fill-opacity:1;stroke:#575757;stroke-width:0;stroke-linejoin:miter;stroke-miterlimit:4;stroke-opacity:1;stroke-dasharray:none"
       d="m 380.76941,234.87776 0,-13.06918 31.36603,0 31.36602,0 0,13.06918 0,13.06919 -31.36602,0 -31.36603,0 0,-13.06919 z"
       id="path4862"
       inkscape:connector-curvature="0" />
    <path
       style="fill:#808080;fill-opacity:1;stroke:#575757;stroke-width:0;stroke-linejoin:miter;stroke-miterlimit:4;stroke-opacity:1;stroke-dasharray:none"
       d="m 481.1407,234.87776 0,-12.02364 15.16025,0 15.16025,0 0,12.02364 0,12.02365 -15.16025,0 -15.16025,0 0,-12.02365 z"
       id="path4864"
       inkscape:connector-curvature="0" />
    <path
       style="fill:#808080;fill-opacity:1;stroke:#575757;stroke-width:0;stroke-linejoin:miter;stroke-miterlimit:4;stroke-opacity:1;stroke-dasharray:none"
       d="m 79.65553,467.50915 0,-13.59195 15.944402,-10e-4 15.944388,-10e-4 -0.31951,13.59377 -0.3195,13.59378 -15.624898,0 -15.624882,0 0,-13.59195 z"
       id="path4866"
       inkscape:connector-curvature="0" />
    <path
       style="fill:#808080;fill-opacity:1;stroke:#575757;stroke-width:0;stroke-linejoin:miter;stroke-miterlimit:4;stroke-opacity:1;stroke-dasharray:none"
       d="m 147.61525,468.61638 c 0,-7.44163 0.35287,-13.73995 0.78415,-13.99626 0.43129,-0.25632 14.78125,-0.21602 31.88881,0.0895 l 31.10463,0.5556 0,13.44068 0,13.44068 -31.88879,0 -31.8888,0 0,-13.53025 z"
       id="path4868"
       inkscape:connector-curvature="0" />
    <path
       style="fill:#808080;fill-opacity:1;stroke:#575757;stroke-width:0;stroke-linejoin:miter;stroke-miterlimit:4;stroke-opacity:1;stroke-dasharray:none"
       d="m 246.94101,468.03192 0,-13.06918 31.36603,0 31.36603,0 0,13.06918 0,13.06917 -31.36603,0 -31.36603,0 0,-13.06917 z"
       id="path4870"
       inkscape:connector-curvature="0" />
    <path
       style="fill:#808080;fill-opacity:1;stroke:#575757;stroke-width:0;stroke-linejoin:miter;stroke-miterlimit:4;stroke-opacity:1;stroke-dasharray:none"
       d="m 352.53998,468.03192 0,-14.11472 31.36604,0 31.36602,0 0,14.11472 0,14.11471 -31.36602,0 -31.36604,0 0,-14.11471 z"
       id="path4872"
       inkscape:connector-curvature="0" />
    <path
       style="fill:#4d4d4d;fill-opacity:1;stroke:#575757;stroke-width:0;stroke-linejoin:miter;stroke-miterlimit:4;stroke-opacity:1;stroke-dasharray:none"
       d="m 476.17442,481.34127 -21.17208,-0.2826 0,-13.04797 0,-13.04796 27.70666,0 27.70666,0 0,12.97632 0,12.9763 -6.53458,0.35426 c -3.59403,0.19484 -16.06202,0.22707 -27.70666,0.0717 l 0,2e-5 z"
       id="path4874"
       inkscape:connector-curvature="0" />
    <path
       style="fill:#4d4d4d;fill-opacity:1;stroke:#575757;stroke-width:0;stroke-linejoin:miter;stroke-miterlimit:4;stroke-opacity:1;stroke-dasharray:none"
       d="m 481.1407,234.87776 0,-12.02364 15.16025,0 15.16025,0 0,12.02364 0,12.02365 -15.16025,0 -15.16025,0 0,-12.02365 z"
       id="path4876"
       inkscape:connector-curvature="0" />
  </g>
  <path
     inkscape:connector-curvature="0"
     id="path3373"
     d="m 79.745706,837.70018 0,-170.94241 215.833354,0 215.83336,0 0,170.94241 0,170.94242 -215.83336,0 -215.833354,0 0,-170.94242 z"
     style="fill:#cccccc;fill-opacity:1;stroke:none" />
  <g
     id="g3401"
     ns0:preamble=""
     ns0:text="Solution"
     transform="matrix(2.8777781,0,0,2.8777781,-393.01772,435.59702)">
    <defs
       id="defs3403">
      <g
         id="g3405">
        <symbol
           id="textext-733d7b35-0"
           overflow="visible"
           style="overflow:visible">
          <path
             id="path3408"
             d=""
             style="stroke:none"
             inkscape:connector-curvature="0" />
        </symbol>
        <symbol
           id="textext-733d7b35-1"
           overflow="visible"
           style="overflow:visible">
          <path
             id="path3411"
             d="m 3.484375,-3.875 -1.28125,-0.296875 c -0.625,-0.15625 -1,-0.6875 -1,-1.265625 0,-0.703125 0.53125,-1.3125 1.3125,-1.3125 1.65625,0 1.875,1.640625 1.9375,2.078125 0.015625,0.0625 0.015625,0.125 0.125,0.125 0.125,0 0.125,-0.046875 0.125,-0.234375 l 0,-2 c 0,-0.171875 0,-0.25 -0.109375,-0.25 -0.0625,0 -0.078125,0.015625 -0.140625,0.140625 l -0.359375,0.5625 C 3.796875,-6.625 3.390625,-7.03125 2.5,-7.03125 c -1.109375,0 -1.9375,0.875 -1.9375,1.9375 0,0.828125 0.53125,1.5625 1.296875,1.828125 0.109375,0.03125 0.625,0.15625 1.328125,0.328125 0.265625,0.0625 0.5625,0.140625 0.84375,0.5 0.203125,0.265625 0.3125,0.59375 0.3125,0.921875 0,0.703125 -0.5,1.421875 -1.34375,1.421875 -0.28125,0 -1.046875,-0.046875 -1.578125,-0.53125 C 0.84375,-1.171875 0.8125,-1.796875 0.8125,-2.15625 0.796875,-2.265625 0.71875,-2.265625 0.6875,-2.265625 c -0.125,0 -0.125,0.078125 -0.125,0.25 l 0,2 c 0,0.171875 0,0.234375 0.109375,0.234375 0.0625,0 0.078125,-0.015625 0.140625,-0.125 0,-0.015625 0.03125,-0.046875 0.359375,-0.578125 0.3125,0.34375 0.953125,0.703125 1.84375,0.703125 1.15625,0 1.953125,-0.96875 1.953125,-2.078125 0,-0.984375 -0.65625,-1.8125 -1.484375,-2.015625 z"
             style="stroke:none"
             inkscape:connector-curvature="0" />
        </symbol>
        <symbol
           id="textext-733d7b35-2"
           overflow="visible"
           style="overflow:visible">
          <path
             id="path3414"
             d="M 4.6875,-2.140625 C 4.6875,-3.40625 3.703125,-4.46875 2.5,-4.46875 c -1.25,0 -2.21875,1.09375 -2.21875,2.328125 0,1.296875 1.03125,2.25 2.203125,2.25 1.203125,0 2.203125,-0.984375 2.203125,-2.25 z m -2.1875,2 c -0.4375,0 -0.875,-0.203125 -1.140625,-0.671875 -0.25,-0.4375 -0.25,-1.046875 -0.25,-1.40625 0,-0.390625 0,-0.921875 0.234375,-1.359375 C 1.609375,-4.03125 2.078125,-4.25 2.484375,-4.25 c 0.4375,0 0.859375,0.21875 1.125,0.65625 0.265625,0.421875 0.265625,1 0.265625,1.375 0,0.359375 0,0.90625 -0.21875,1.34375 C 3.421875,-0.421875 2.984375,-0.140625 2.5,-0.140625 z"
             style="stroke:none"
             inkscape:connector-curvature="0" />
        </symbol>
        <symbol
           id="textext-733d7b35-3"
           overflow="visible"
           style="overflow:visible">
          <path
             id="path3417"
             d="m 1.765625,-6.921875 -1.4375,0.109375 0,0.3125 c 0.703125,0 0.78125,0.0625 0.78125,0.5625 l 0,5.1875 c 0,0.4375 -0.109375,0.4375 -0.78125,0.4375 l 0,0.3125 C 0.65625,-0.015625 1.1875,-0.03125 1.4375,-0.03125 c 0.25,0 0.734375,0.015625 1.109375,0.03125 l 0,-0.3125 c -0.671875,0 -0.78125,0 -0.78125,-0.4375 z"
             style="stroke:none"
             inkscape:connector-curvature="0" />
        </symbol>
        <symbol
           id="textext-733d7b35-4"
           overflow="visible"
           style="overflow:visible">
          <path
             id="path3420"
             d="m 3.890625,-0.78125 0,0.890625 L 5.328125,0 l 0,-0.3125 C 4.640625,-0.3125 4.5625,-0.375 4.5625,-0.875 l 0,-3.53125 -1.46875,0.109375 0,0.3125 c 0.6875,0 0.78125,0.0625 0.78125,0.5625 l 0,1.765625 c 0,0.875 -0.484375,1.546875 -1.21875,1.546875 -0.828125,0 -0.875,-0.46875 -0.875,-0.984375 l 0,-3.3125 -1.46875,0.109375 0,0.3125 c 0.78125,0 0.78125,0.03125 0.78125,0.90625 l 0,1.5 c 0,0.78125 0,1.6875 1.515625,1.6875 0.5625,0 1,-0.28125 1.28125,-0.890625 z"
             style="stroke:none"
             inkscape:connector-curvature="0" />
        </symbol>
        <symbol
           id="textext-733d7b35-5"
           overflow="visible"
           style="overflow:visible">
          <path
             id="path3423"
             d="m 1.71875,-3.984375 1.4375,0 0,-0.3125 -1.4375,0 0,-1.828125 -0.25,0 c 0,0.8125 -0.296875,1.875 -1.28125,1.921875 l 0,0.21875 0.84375,0 0,2.75 c 0,1.21875 0.9375,1.34375 1.296875,1.34375 0.703125,0 0.984375,-0.703125 0.984375,-1.34375 l 0,-0.5625 -0.25,0 0,0.546875 c 0,0.734375 -0.296875,1.109375 -0.671875,1.109375 -0.671875,0 -0.671875,-0.90625 -0.671875,-1.078125 z"
             style="stroke:none"
             inkscape:connector-curvature="0" />
        </symbol>
        <symbol
           id="textext-733d7b35-6"
           overflow="visible"
           style="overflow:visible">
          <path
             id="path3426"
             d="M 1.765625,-4.40625 0.375,-4.296875 l 0,0.3125 c 0.640625,0 0.734375,0.0625 0.734375,0.546875 l 0,2.6875 c 0,0.4375 -0.109375,0.4375 -0.78125,0.4375 l 0,0.3125 C 0.640625,-0.015625 1.1875,-0.03125 1.421875,-0.03125 1.78125,-0.03125 2.125,-0.015625 2.46875,0 l 0,-0.3125 c -0.671875,0 -0.703125,-0.046875 -0.703125,-0.4375 z m 0.03125,-1.734375 c 0,-0.3125 -0.234375,-0.53125 -0.515625,-0.53125 -0.3125,0 -0.53125,0.265625 -0.53125,0.53125 0,0.265625 0.21875,0.53125 0.53125,0.53125 0.28125,0 0.515625,-0.21875 0.515625,-0.53125 z"
             style="stroke:none"
             inkscape:connector-curvature="0" />
        </symbol>
        <symbol
           id="textext-733d7b35-7"
           overflow="visible"
           style="overflow:visible">
          <path
             id="path3429"
             d="m 1.09375,-3.421875 0,2.671875 c 0,0.4375 -0.109375,0.4375 -0.78125,0.4375 l 0,0.3125 c 0.359375,-0.015625 0.859375,-0.03125 1.140625,-0.03125 0.25,0 0.765625,0.015625 1.109375,0.03125 l 0,-0.3125 c -0.671875,0 -0.78125,0 -0.78125,-0.4375 l 0,-1.84375 C 1.78125,-3.625 2.5,-4.1875 3.125,-4.1875 c 0.640625,0 0.75,0.53125 0.75,1.109375 l 0,2.328125 c 0,0.4375 -0.109375,0.4375 -0.78125,0.4375 l 0,0.3125 c 0.34375,-0.015625 0.859375,-0.03125 1.125,-0.03125 0.25,0 0.78125,0.015625 1.109375,0.03125 l 0,-0.3125 c -0.515625,0 -0.765625,0 -0.765625,-0.296875 l 0,-1.90625 c 0,-0.859375 0,-1.15625 -0.3125,-1.515625 -0.140625,-0.171875 -0.46875,-0.375 -1.046875,-0.375 C 2.46875,-4.40625 2,-3.984375 1.71875,-3.359375 l 0,-1.046875 -1.40625,0.109375 0,0.3125 c 0.703125,0 0.78125,0.0625 0.78125,0.5625 z"
             style="stroke:none"
             inkscape:connector-curvature="0" />
        </symbol>
      </g>
    </defs>
    <g
       id="textext-733d7b35-8">
      <g
         id="g3432"
         style="fill:#000000;fill-opacity:1">
        <use
           id="use3434"
           y="134.765"
           x="223.43201"
           xlink:href="#textext-733d7b35-1"
           width="744.09448"
           height="1052.3622" />
        <use
           id="use3436"
           y="134.765"
           x="228.96722"
           xlink:href="#textext-733d7b35-2"
           width="744.09448"
           height="1052.3622" />
        <use
           id="use3438"
           y="134.765"
           x="233.94852"
           xlink:href="#textext-733d7b35-3"
           width="744.09448"
           height="1052.3622" />
        <use
           id="use3440"
           y="134.765"
           x="236.71613"
           xlink:href="#textext-733d7b35-4"
           width="744.09448"
           height="1052.3622" />
        <use
           id="use3442"
           y="134.765"
           x="242.25136"
           xlink:href="#textext-733d7b35-5"
           width="744.09448"
           height="1052.3622" />
        <use
           id="use3444"
           y="134.765"
           x="246.12581"
           xlink:href="#textext-733d7b35-6"
           width="744.09448"
           height="1052.3622" />
        <use
           id="use3446"
           y="134.765"
           x="248.89342"
           xlink:href="#textext-733d7b35-2"
           width="744.09448"
           height="1052.3622" />
        <use
           id="use3448"
           y="134.765"
           x="253.87471"
           xlink:href="#textext-733d7b35-7"
           width="744.09448"
           height="1052.3622" />
      </g>
    </g>
  </g>
  <g
     transform="matrix(2.8777781,0,0,2.8777781,-70.843604,81.904381)"
     ns0:text="plate 1"
     ns0:preamble=""
     id="g3558">
    <defs
       id="defs3560">
      <g
         id="g3562">
        <symbol
           style="overflow:visible"
           overflow="visible"
           id="textext-5a7be503-0">
          <path
             inkscape:connector-curvature="0"
             style="stroke:none"
             d=""
             id="path3565" />
        </symbol>
        <symbol
           style="overflow:visible"
           overflow="visible"
           id="textext-5a7be503-1">
          <path
             inkscape:connector-curvature="0"
             style="stroke:none"
             d="m 1.71875,-3.75 0,-0.65625 -1.4375,0.109375 0,0.3125 c 0.703125,0 0.78125,0.0625 0.78125,0.5 l 0,4.65625 C 1.0625,1.625 0.953125,1.625 0.28125,1.625 l 0,0.3125 C 0.625,1.921875 1.140625,1.90625 1.390625,1.90625 c 0.28125,0 0.78125,0.015625 1.125,0.03125 l 0,-0.3125 C 1.859375,1.625 1.75,1.625 1.75,1.171875 l 0,-1.765625 c 0.046875,0.171875 0.46875,0.703125 1.21875,0.703125 1.1875,0 2.21875,-0.984375 2.21875,-2.265625 0,-1.265625 -0.953125,-2.25 -2.078125,-2.25 -0.78125,0 -1.203125,0.4375 -1.390625,0.65625 z m 0.03125,2.609375 0,-2.21875 C 2.03125,-3.875 2.515625,-4.15625 3.03125,-4.15625 c 0.734375,0 1.328125,0.875 1.328125,2 0,1.203125 -0.6875,2.046875 -1.421875,2.046875 -0.40625,0 -0.78125,-0.203125 -1.046875,-0.609375 C 1.75,-0.921875 1.75,-0.9375 1.75,-1.140625 z"
             id="path3568" />
        </symbol>
        <symbol
           style="overflow:visible"
           overflow="visible"
           id="textext-5a7be503-2">
          <path
             inkscape:connector-curvature="0"
             style="stroke:none"
             d="m 1.765625,-6.921875 -1.4375,0.109375 0,0.3125 c 0.703125,0 0.78125,0.0625 0.78125,0.5625 l 0,5.1875 c 0,0.4375 -0.109375,0.4375 -0.78125,0.4375 l 0,0.3125 C 0.65625,-0.015625 1.1875,-0.03125 1.4375,-0.03125 c 0.25,0 0.734375,0.015625 1.109375,0.03125 l 0,-0.3125 c -0.671875,0 -0.78125,0 -0.78125,-0.4375 z"
             id="path3571" />
        </symbol>
        <symbol
           style="overflow:visible"
           overflow="visible"
           id="textext-5a7be503-3">
          <path
             inkscape:connector-curvature="0"
             style="stroke:none"
             d="m 3.3125,-0.75 c 0.046875,0.390625 0.3125,0.8125 0.78125,0.8125 0.21875,0 0.828125,-0.140625 0.828125,-0.953125 l 0,-0.5625 -0.25,0 0,0.5625 c 0,0.578125 -0.25,0.640625 -0.359375,0.640625 -0.328125,0 -0.375,-0.453125 -0.375,-0.5 l 0,-1.984375 c 0,-0.421875 0,-0.8125 -0.359375,-1.1875 C 3.1875,-4.3125 2.6875,-4.46875 2.21875,-4.46875 c -0.828125,0 -1.515625,0.46875 -1.515625,1.125 0,0.296875 0.203125,0.46875 0.46875,0.46875 0.28125,0 0.453125,-0.203125 0.453125,-0.453125 0,-0.125 -0.046875,-0.453125 -0.515625,-0.453125 C 1.390625,-4.140625 1.875,-4.25 2.1875,-4.25 c 0.5,0 1.0625,0.390625 1.0625,1.28125 l 0,0.359375 c -0.515625,0.03125 -1.203125,0.0625 -1.828125,0.359375 -0.75,0.34375 -1,0.859375 -1,1.296875 0,0.8125 0.96875,1.0625 1.59375,1.0625 0.65625,0 1.109375,-0.40625 1.296875,-0.859375 z M 3.25,-2.390625 l 0,1 c 0,0.9375 -0.71875,1.28125 -1.171875,1.28125 -0.484375,0 -0.890625,-0.34375 -0.890625,-0.84375 0,-0.546875 0.421875,-1.375 2.0625,-1.4375 z"
             id="path3574" />
        </symbol>
        <symbol
           style="overflow:visible"
           overflow="visible"
           id="textext-5a7be503-4">
          <path
             inkscape:connector-curvature="0"
             style="stroke:none"
             d="m 1.71875,-3.984375 1.4375,0 0,-0.3125 -1.4375,0 0,-1.828125 -0.25,0 c 0,0.8125 -0.296875,1.875 -1.28125,1.921875 l 0,0.21875 0.84375,0 0,2.75 c 0,1.21875 0.9375,1.34375 1.296875,1.34375 0.703125,0 0.984375,-0.703125 0.984375,-1.34375 l 0,-0.5625 -0.25,0 0,0.546875 c 0,0.734375 -0.296875,1.109375 -0.671875,1.109375 -0.671875,0 -0.671875,-0.90625 -0.671875,-1.078125 z"
             id="path3577" />
        </symbol>
        <symbol
           style="overflow:visible"
           overflow="visible"
           id="textext-5a7be503-5">
          <path
             inkscape:connector-curvature="0"
             style="stroke:none"
             d="M 1.109375,-2.515625 C 1.171875,-4 2.015625,-4.25 2.359375,-4.25 c 1.015625,0 1.125,1.34375 1.125,1.734375 z m 0,0.21875 2.78125,0 c 0.21875,0 0.25,0 0.25,-0.21875 0,-0.984375 -0.546875,-1.953125 -1.78125,-1.953125 -1.15625,0 -2.078125,1.03125 -2.078125,2.28125 0,1.328125 1.046875,2.296875 2.1875,2.296875 C 3.6875,0.109375 4.140625,-1 4.140625,-1.1875 4.140625,-1.28125 4.0625,-1.3125 4,-1.3125 c -0.078125,0 -0.109375,0.0625 -0.125,0.140625 -0.34375,1.03125 -1.25,1.03125 -1.34375,1.03125 -0.5,0 -0.890625,-0.296875 -1.125,-0.671875 -0.296875,-0.46875 -0.296875,-1.125 -0.296875,-1.484375 z"
             id="path3580" />
        </symbol>
        <symbol
           style="overflow:visible"
           overflow="visible"
           id="textext-5a7be503-6">
          <path
             inkscape:connector-curvature="0"
             style="stroke:none"
             d="m 2.9375,-6.375 c 0,-0.25 0,-0.265625 -0.234375,-0.265625 C 2.078125,-6 1.203125,-6 0.890625,-6 l 0,0.3125 c 0.203125,0 0.78125,0 1.296875,-0.265625 l 0,5.171875 c 0,0.359375 -0.03125,0.46875 -0.921875,0.46875 l -0.3125,0 0,0.3125 c 0.34375,-0.03125 1.203125,-0.03125 1.609375,-0.03125 0.390625,0 1.265625,0 1.609375,0.03125 l 0,-0.3125 -0.3125,0 c -0.90625,0 -0.921875,-0.109375 -0.921875,-0.46875 z"
             id="path3583" />
        </symbol>
      </g>
    </defs>
    <g
       id="textext-5a7be503-7">
      <g
         style="fill:#000000;fill-opacity:1"
         id="g3586">
        <use
           height="1052.3622"
           width="744.09448"
           xlink:href="#textext-5a7be503-1"
           x="223.43201"
           y="134.765"
           id="use3588" />
        <use
           height="1052.3622"
           width="744.09448"
           xlink:href="#textext-5a7be503-2"
           x="228.96722"
           y="134.765"
           id="use3590" />
        <use
           height="1052.3622"
           width="744.09448"
           xlink:href="#textext-5a7be503-3"
           x="231.73483"
           y="134.765"
           id="use3592" />
        <use
           height="1052.3622"
           width="744.09448"
           xlink:href="#textext-5a7be503-4"
           x="236.71613"
           y="134.765"
           id="use3594" />
        <use
           height="1052.3622"
           width="744.09448"
           xlink:href="#textext-5a7be503-5"
           x="240.59059"
           y="134.765"
           id="use3596" />
      </g>
      <g
         style="fill:#000000;fill-opacity:1"
         id="g3598">
        <use
           height="1052.3622"
           width="744.09448"
           xlink:href="#textext-5a7be503-6"
           x="248.33551"
           y="134.765"
           id="use3600" />
      </g>
    </g>
  </g>
  <g
     id="g3855"
     transform="matrix(2.8777781,0,0,2.8777781,-71.311407,-152.6176)"
     ns0:preamble=""
     ns0:text="plate 2">
    <defs
       id="defs3857">
      <g
         id="g3859">
        <symbol
           id="textext-db82dd74-0"
           overflow="visible"
           style="overflow:visible">
          <path
             id="path3862"
             d=""
             style="stroke:none"
             inkscape:connector-curvature="0" />
        </symbol>
        <symbol
           id="textext-db82dd74-1"
           overflow="visible"
           style="overflow:visible">
          <path
             id="path3865"
             d="m 1.71875,-3.75 0,-0.65625 -1.4375,0.109375 0,0.3125 c 0.703125,0 0.78125,0.0625 0.78125,0.5 l 0,4.65625 C 1.0625,1.625 0.953125,1.625 0.28125,1.625 l 0,0.3125 C 0.625,1.921875 1.140625,1.90625 1.390625,1.90625 c 0.28125,0 0.78125,0.015625 1.125,0.03125 l 0,-0.3125 C 1.859375,1.625 1.75,1.625 1.75,1.171875 l 0,-1.765625 c 0.046875,0.171875 0.46875,0.703125 1.21875,0.703125 1.1875,0 2.21875,-0.984375 2.21875,-2.265625 0,-1.265625 -0.953125,-2.25 -2.078125,-2.25 -0.78125,0 -1.203125,0.4375 -1.390625,0.65625 z m 0.03125,2.609375 0,-2.21875 C 2.03125,-3.875 2.515625,-4.15625 3.03125,-4.15625 c 0.734375,0 1.328125,0.875 1.328125,2 0,1.203125 -0.6875,2.046875 -1.421875,2.046875 -0.40625,0 -0.78125,-0.203125 -1.046875,-0.609375 C 1.75,-0.921875 1.75,-0.9375 1.75,-1.140625 z"
             style="stroke:none"
             inkscape:connector-curvature="0" />
        </symbol>
        <symbol
           id="textext-db82dd74-2"
           overflow="visible"
           style="overflow:visible">
          <path
             id="path3868"
             d="m 1.765625,-6.921875 -1.4375,0.109375 0,0.3125 c 0.703125,0 0.78125,0.0625 0.78125,0.5625 l 0,5.1875 c 0,0.4375 -0.109375,0.4375 -0.78125,0.4375 l 0,0.3125 C 0.65625,-0.015625 1.1875,-0.03125 1.4375,-0.03125 c 0.25,0 0.734375,0.015625 1.109375,0.03125 l 0,-0.3125 c -0.671875,0 -0.78125,0 -0.78125,-0.4375 z"
             style="stroke:none"
             inkscape:connector-curvature="0" />
        </symbol>
        <symbol
           id="textext-db82dd74-3"
           overflow="visible"
           style="overflow:visible">
          <path
             id="path3871"
             d="m 3.3125,-0.75 c 0.046875,0.390625 0.3125,0.8125 0.78125,0.8125 0.21875,0 0.828125,-0.140625 0.828125,-0.953125 l 0,-0.5625 -0.25,0 0,0.5625 c 0,0.578125 -0.25,0.640625 -0.359375,0.640625 -0.328125,0 -0.375,-0.453125 -0.375,-0.5 l 0,-1.984375 c 0,-0.421875 0,-0.8125 -0.359375,-1.1875 C 3.1875,-4.3125 2.6875,-4.46875 2.21875,-4.46875 c -0.828125,0 -1.515625,0.46875 -1.515625,1.125 0,0.296875 0.203125,0.46875 0.46875,0.46875 0.28125,0 0.453125,-0.203125 0.453125,-0.453125 0,-0.125 -0.046875,-0.453125 -0.515625,-0.453125 C 1.390625,-4.140625 1.875,-4.25 2.1875,-4.25 c 0.5,0 1.0625,0.390625 1.0625,1.28125 l 0,0.359375 c -0.515625,0.03125 -1.203125,0.0625 -1.828125,0.359375 -0.75,0.34375 -1,0.859375 -1,1.296875 0,0.8125 0.96875,1.0625 1.59375,1.0625 0.65625,0 1.109375,-0.40625 1.296875,-0.859375 z M 3.25,-2.390625 l 0,1 c 0,0.9375 -0.71875,1.28125 -1.171875,1.28125 -0.484375,0 -0.890625,-0.34375 -0.890625,-0.84375 0,-0.546875 0.421875,-1.375 2.0625,-1.4375 z"
             style="stroke:none"
             inkscape:connector-curvature="0" />
        </symbol>
        <symbol
           id="textext-db82dd74-4"
           overflow="visible"
           style="overflow:visible">
          <path
             id="path3874"
             d="m 1.71875,-3.984375 1.4375,0 0,-0.3125 -1.4375,0 0,-1.828125 -0.25,0 c 0,0.8125 -0.296875,1.875 -1.28125,1.921875 l 0,0.21875 0.84375,0 0,2.75 c 0,1.21875 0.9375,1.34375 1.296875,1.34375 0.703125,0 0.984375,-0.703125 0.984375,-1.34375 l 0,-0.5625 -0.25,0 0,0.546875 c 0,0.734375 -0.296875,1.109375 -0.671875,1.109375 -0.671875,0 -0.671875,-0.90625 -0.671875,-1.078125 z"
             style="stroke:none"
             inkscape:connector-curvature="0" />
        </symbol>
        <symbol
           id="textext-db82dd74-5"
           overflow="visible"
           style="overflow:visible">
          <path
             id="path3877"
             d="M 1.109375,-2.515625 C 1.171875,-4 2.015625,-4.25 2.359375,-4.25 c 1.015625,0 1.125,1.34375 1.125,1.734375 z m 0,0.21875 2.78125,0 c 0.21875,0 0.25,0 0.25,-0.21875 0,-0.984375 -0.546875,-1.953125 -1.78125,-1.953125 -1.15625,0 -2.078125,1.03125 -2.078125,2.28125 0,1.328125 1.046875,2.296875 2.1875,2.296875 C 3.6875,0.109375 4.140625,-1 4.140625,-1.1875 4.140625,-1.28125 4.0625,-1.3125 4,-1.3125 c -0.078125,0 -0.109375,0.0625 -0.125,0.140625 -0.34375,1.03125 -1.25,1.03125 -1.34375,1.03125 -0.5,0 -0.890625,-0.296875 -1.125,-0.671875 -0.296875,-0.46875 -0.296875,-1.125 -0.296875,-1.484375 z"
             style="stroke:none"
             inkscape:connector-curvature="0" />
        </symbol>
        <symbol
           id="textext-db82dd74-6"
           overflow="visible"
           style="overflow:visible">
          <path
             id="path3880"
             d="m 1.265625,-0.765625 1.0625,-1.03125 c 1.546875,-1.375 2.140625,-1.90625 2.140625,-2.90625 0,-1.140625 -0.890625,-1.9375 -2.109375,-1.9375 -1.125,0 -1.859375,0.921875 -1.859375,1.8125 0,0.546875 0.5,0.546875 0.53125,0.546875 0.171875,0 0.515625,-0.109375 0.515625,-0.53125 0,-0.25 -0.1875,-0.515625 -0.53125,-0.515625 -0.078125,0 -0.09375,0 -0.125,0.015625 0.21875,-0.65625 0.765625,-1.015625 1.34375,-1.015625 0.90625,0 1.328125,0.8125 1.328125,1.625 C 3.5625,-3.90625 3.078125,-3.125 2.515625,-2.5 l -1.90625,2.125 C 0.5,-0.265625 0.5,-0.234375 0.5,0 l 3.703125,0 0.265625,-1.734375 -0.234375,0 C 4.171875,-1.4375 4.109375,-1 4,-0.84375 3.9375,-0.765625 3.28125,-0.765625 3.0625,-0.765625 z"
             style="stroke:none"
             inkscape:connector-curvature="0" />
        </symbol>
      </g>
    </defs>
    <g
       id="textext-db82dd74-7">
      <g
         id="g3883"
         style="fill:#000000;fill-opacity:1">
        <use
           id="use3885"
           y="134.765"
           x="223.43201"
           xlink:href="#textext-db82dd74-1"
           width="744.09448"
           height="1052.3622" />
        <use
           id="use3887"
           y="134.765"
           x="228.96722"
           xlink:href="#textext-db82dd74-2"
           width="744.09448"
           height="1052.3622" />
        <use
           id="use3889"
           y="134.765"
           x="231.73483"
           xlink:href="#textext-db82dd74-3"
           width="744.09448"
           height="1052.3622" />
        <use
           id="use3891"
           y="134.765"
           x="236.71613"
           xlink:href="#textext-db82dd74-4"
           width="744.09448"
           height="1052.3622" />
        <use
           id="use3893"
           y="134.765"
           x="240.59059"
           xlink:href="#textext-db82dd74-5"
           width="744.09448"
           height="1052.3622" />
      </g>
      <g
         id="g3895"
         style="fill:#000000;fill-opacity:1">
        <use
           id="use3897"
           y="134.765"
           x="248.33551"
           xlink:href="#textext-db82dd74-6"
           width="744.09448"
           height="1052.3622" />
      </g>
    </g>
  </g>
  <path
     style="fill:none;stroke:#000000;stroke-width:1.43888903px;stroke-linecap:butt;stroke-linejoin:miter;stroke-opacity:1"
     d="m 79.616148,453.81301 33.032862,0 0,0"
     id="path4004"
     inkscape:connector-curvature="0" />
  <path
     style="fill:#5d6c53;stroke:#000000;stroke-width:1.43888903px;stroke-linecap:butt;stroke-linejoin:miter;stroke-opacity:1"
     d="m 147.3615,453.81301 63.82622,0 0,0.55987"
     id="path4006"
     inkscape:connector-curvature="0" />
  <path
     style="fill:none;stroke:#000000;stroke-width:1.43888903px;stroke-linecap:butt;stroke-linejoin:miter;stroke-opacity:1"
     d="m 245.90021,453.25312 64.94597,0"
     id="path4008"
     inkscape:connector-curvature="0" />
  <path
     style="fill:none;stroke:#000000;stroke-width:1.43888903px;stroke-linecap:butt;stroke-linejoin:miter;stroke-opacity:1"
     d="m 350.59759,452.13336 65.50584,0 0,-0.55987"
     id="path4012"
     inkscape:connector-curvature="0" />
  <path
     style="fill:none;stroke:#000000;stroke-width:1.43888903px;stroke-linecap:butt;stroke-linejoin:miter;stroke-opacity:1"
     d="m 454.17521,453.25312 57.10765,0 0,-0.55987"
     id="path4014"
     inkscape:connector-curvature="0" />
  <path
     style="fill:#666666;fill-opacity:1;stroke:none"
     d="m 79.572866,468.14233 0,-13.4371 16.236496,0 16.236498,0 0,13.4371 0,13.43709 -16.236498,0 -16.236496,0 0,-13.43709 z"
     id="path4034"
     inkscape:connector-curvature="0" />
  <path
     style="fill:#666666;fill-opacity:1;stroke:none"
     d="m 148.35465,468.7022 0,-13.99697 31.91311,0 31.91311,0 0,13.99697 0,13.99698 -31.91311,0 -31.91311,0 0,-13.99698 z"
     id="path4036"
     inkscape:connector-curvature="0" />
  <path
     style="fill:#666666;fill-opacity:1;stroke:none"
     d="m 246.89336,467.86239 0,-13.71704 31.63317,0 31.63316,0 0,13.71704 0,13.71703 -31.63316,0 -31.63317,0 0,-13.71703 z"
     id="path4038"
     inkscape:connector-curvature="0" />
  <path
     style="fill:#666666;fill-opacity:1;stroke:none"
     d="m 351.59074,467.58244 0,-14.55685 31.91309,0 31.91311,0 0,14.55685 0,14.55685 -31.91311,0 -31.91309,0 0,-14.55685 z"
     id="path4040"
     inkscape:connector-curvature="0" />
  <path
     style="fill:none;stroke:#000000;stroke-width:1.43888903px;stroke-linecap:butt;stroke-linejoin:miter;stroke-opacity:1"
     d="m 497.84577,482.36684 14.55685,0"
     id="path4046"
     inkscape:connector-curvature="0" />
  <path
     style="fill:#666666;fill-opacity:1;stroke:none"
     d="m 454.60848,467.86239 0,-13.71704 28.27388,0 28.2739,0 0,13.71704 0,13.71703 -28.2739,0 -28.27388,0 0,-13.71703 z"
     id="path4048"
     inkscape:connector-curvature="0" />
  <path
     style="fill:#666666;fill-opacity:1;stroke:none"
     d="m 454.4814,467.94287 0,-13.9373 28.56496,0 28.56497,0 0,13.80784 0,13.80784 -0.21574,0 -0.21575,0 0,-13.74312 0,-13.74311 -28.30614,0 -28.30613,0 0.0115,13.73234 0.0115,13.73232 21.60712,0.0115 21.60711,0.0115 0,0.12936 0,0.12936 -21.66105,0 -21.66105,0 0,-13.93728 z"
     id="path4050"
     inkscape:connector-curvature="0" />
</svg>
