<?xml version="1.0" encoding="UTF-8" standalone="no"?>
<!-- Created with Inkscape (http://www.inkscape.org/) -->

<svg
   xmlns:ns0="http://www.iki.fi/pav/software/textext/"
   xmlns:dc="http://purl.org/dc/elements/1.1/"
   xmlns:cc="http://creativecommons.org/ns#"
   xmlns:rdf="http://www.w3.org/1999/02/22-rdf-syntax-ns#"
   xmlns:svg="http://www.w3.org/2000/svg"
   xmlns="http://www.w3.org/2000/svg"
   xmlns:xlink="http://www.w3.org/1999/xlink"
   xmlns:sodipodi="http://sodipodi.sourceforge.net/DTD/sodipodi-0.dtd"
   xmlns:inkscape="http://www.inkscape.org/namespaces/inkscape"
   inkscape:version="0.48.4 r9939"
   version="1.1"
   id="svg2"
   height="1052.3622047"
   width="744.09448819"
   sodipodi:docname="Lect2_binary_solution.pdf"
   inkscape:export-filename="/home/maurizio/Documents/CHM2003/Thermodynamics/Images/Lect2_binary_solution.pdf.png"
   inkscape:export-xdpi="90"
   inkscape:export-ydpi="90">
  <sodipodi:namedview
     id="base"
     pagecolor="#ffffff"
     bordercolor="#666666"
     borderopacity="1.0"
     inkscape:pageopacity="0.0"
     inkscape:pageshadow="2"
     inkscape:zoom="1.18"
     inkscape:cx="447.95763"
     inkscape:cy="928.79279"
     inkscape:document-units="px"
     inkscape:current-layer="svg2"
     showgrid="true"
     inkscape:window-width="1920"
     inkscape:window-height="1030"
     inkscape:window-x="0"
     inkscape:window-y="0"
     inkscape:window-maximized="1">
    <inkscape:grid
       id="grid5288"
       type="xygrid" />
  </sodipodi:namedview>
  <defs
     id="defs4">
    <pattern
       inkscape:collect="always"
       xlink:href="#Strips1_1"
       id="pattern10759"
       patternTransform="matrix(24.238373,0,0,20.895097,-409.05532,-448.18086)" />
    <pattern
       inkscape:collect="always"
       xlink:href="#pattern5743"
       id="pattern10757"
       patternTransform="matrix(2.4238373,0,0,2.0895097,682.20169,99.140074)" />
    <pattern
       inkscape:collect="always"
       xlink:href="#pattern5743"
       id="pattern10755"
       patternTransform="matrix(2.4238373,0,0,2.0895097,682.20169,99.140074)" />
    <pattern
       inkscape:collect="always"
       xlink:href="#pattern5743"
       id="pattern10753"
       patternTransform="matrix(2.4238373,0,0,2.0895097,682.20169,99.140074)" />
    <pattern
       inkscape:collect="always"
       xlink:href="#pattern5743"
       id="pattern10751"
       patternTransform="matrix(2.4238373,0,0,2.0895097,682.20169,99.140074)" />
    <marker
       style="overflow:visible;"
       id="Arrow1Mend"
       refX="0.0"
       refY="0.0"
       orient="auto"
       inkscape:stockid="Arrow1Mend">
      <path
         transform="scale(0.4) rotate(180) translate(10,0)"
         style="fill-rule:evenodd;stroke:#000000;stroke-width:1.0pt;"
         d="M 0.0,0.0 L 5.0,-5.0 L -12.5,0.0 L 5.0,5.0 L 0.0,0.0 z "
         id="path5795" />
    </marker>
    <marker
       style="overflow:visible"
       id="TriangleInL"
       refX="0.0"
       refY="0.0"
       orient="auto"
       inkscape:stockid="TriangleInL">
      <path
         transform="scale(-0.8)"
         style="fill-rule:evenodd;stroke:#000000;stroke-width:1.0pt"
         d="M 5.77,0.0 L -2.88,5.0 L -2.88,-5.0 L 5.77,0.0 z "
         id="path5919" />
    </marker>
    <marker
       style="overflow:visible"
       id="Arrow2Lstart"
       refX="0.0"
       refY="0.0"
       orient="auto"
       inkscape:stockid="Arrow2Lstart">
      <path
         transform="scale(1.1) translate(1,0)"
         d="M 8.7185878,4.0337352 L -2.2072895,0.016013256 L 8.7185884,-4.0017078 C 6.9730900,-1.6296469 6.9831476,1.6157441 8.7185878,4.0337352 z "
         style="fill-rule:evenodd;stroke-width:0.62500000;stroke-linejoin:round"
         id="path5804" />
    </marker>
    <marker
       style="overflow:visible"
       id="Arrow1Mstart"
       refX="0.0"
       refY="0.0"
       orient="auto"
       inkscape:stockid="Arrow1Mstart">
      <path
         transform="scale(0.4) translate(10,0)"
         style="fill-rule:evenodd;stroke:#000000;stroke-width:1.0pt"
         d="M 0.0,0.0 L 5.0,-5.0 L -12.5,0.0 L 5.0,5.0 L 0.0,0.0 z "
         id="path5792" />
    </marker>
    <marker
       style="overflow:visible"
       id="Arrow1Lstart"
       refX="0.0"
       refY="0.0"
       orient="auto"
       inkscape:stockid="Arrow1Lstart">
      <path
         transform="scale(0.8) translate(12.5,0)"
         style="fill-rule:evenodd;stroke:#000000;stroke-width:1.0pt"
         d="M 0.0,0.0 L 5.0,-5.0 L -12.5,0.0 L 5.0,5.0 L 0.0,0.0 z "
         id="path5786" />
    </marker>
    <marker
       style="overflow:visible"
       id="Arrow1Sstart"
       refX="0.0"
       refY="0.0"
       orient="auto"
       inkscape:stockid="Arrow1Sstart">
      <path
         transform="scale(0.2) translate(6,0)"
         style="fill-rule:evenodd;stroke:#000000;stroke-width:1.0pt"
         d="M 0.0,0.0 L 5.0,-5.0 L -12.5,0.0 L 5.0,5.0 L 0.0,0.0 z "
         id="path5798" />
    </marker>
    <pattern
       inkscape:collect="always"
       patternUnits="userSpaceOnUse"
       width="2"
       height="1"
       patternTransform="translate(0,0) scale(10,10)"
       id="Strips1_1"
       inkscape:stockid="Stripes 1:1">
      <rect
         style="fill:black;stroke:none"
         x="0"
         y="-0.5"
         width="1"
         height="2"
         id="rect4490" />
    </pattern>
    <pattern
       id="pattern5743"
       patternTransform="translate(450.21875,261.9375)"
       height="10.0625"
       width="9.40625"
       patternUnits="userSpaceOnUse">
      <path
         style="fill:#000000;fill-opacity:1;stroke:#000000;stroke-width:0;stroke-linejoin:miter;stroke-miterlimit:4;stroke-opacity:1;stroke-dasharray:none"
         id="path5741"
         d="M 0.04643,10.02302 C 0.3151,9.68352 0.57663,9.33773 0.82381,8.98218 1.02684,8.72125 1.18741,8.4334 1.35355,8.14877 1.51477,7.8733 1.6647,7.59156 1.81201,7.30849 1.98235,6.99762 2.19226,6.71144 2.39008,6.41803 2.58411,6.15175 2.76472,5.87729 2.9115,5.58216 3.0305,5.30592 3.20289,5.05848 3.35885,4.80274 3.52411,4.53039 3.73375,4.29088 3.95953,4.06779 4.1835,3.83703 4.40576,3.60463 4.63063,3.37473 4.85355,3.14317 5.08485,2.91939 5.3304,2.71188 5.57138,2.5351 5.81644,2.36641 6.04605,2.17434 6.27273,1.97618 6.49657,1.77452 6.73516,1.5907 6.92267,1.44361 7.12569,1.31849 7.31924,1.18012 8.06192,0.65444 8.63623,0.31219 9.40103,0.05539 c 0,0 -1.51729,1.18664 -1.51729,1.18664 l 0,0 C 7.2354,1.50431 6.32874,2.00785 9.11463,0.47778 8.91202,0.60303 8.71423,0.74029 8.52621,0.88705 8.26838,1.04379 8.05189,1.25706 7.82416,1.45276 7.60229,1.65143 7.3752,1.84629 7.11432,1.99288 6.86412,2.19428 6.62234,2.40485 6.40173,2.63903 6.17716,2.86771 5.95396,3.09773 5.7344,3.33125 5.51948,3.55441 5.28296,3.75857 5.11823,4.02623 4.95983,4.27637 4.79445,4.52433 4.65719,4.78604 4.52387,5.09522 4.35353,5.38451 4.14735,5.65119 3.94951,5.93906 3.74748,6.22377 3.56463,6.52159 3.40904,6.80305 3.26859,7.09263 3.10727,7.37109 2.93317,7.6558 2.79441,7.96353 2.57439,8.21787 2.33604,8.57818 2.06454,8.91416 1.81946,9.2697 c 0,0 -1.77303,0.75332 -1.77303,0.75332 z"
         inkscape:connector-curvature="0" />
    </pattern>
    <pattern
       id="pattern7760"
       patternTransform="translate(506.77282,315.01363)"
       height="9.78363"
       width="61.73204"
       patternUnits="userSpaceOnUse">
      <path
         style="fill:#000000;fill-opacity:1;stroke:none"
         id="path7746"
         d="m 2.4373,0 c 0.79407,0.067 1.60749,0.0917 2.4152,0.12714 2.2696,0.14824 4.58234,0.17731 6.8828,0.20797 2.60189,0.0306 5.20859,0.0226 7.80805,0.0765 0.81271,0.0358 1.64642,0.0307 2.45246,0.0843 0.51592,0.0285 0.99742,0.10205 1.49496,0.15467 0.4105,0.0608 0.84245,0.0975 1.26745,0.14238 0.4966,0.0452 0.99265,0.0862 1.50207,0.10862 0.41787,0.009 0.86596,-0.0101 1.26885,-0.053 0.41129,-0.0421 0.80846,-0.10551 1.18578,-0.17742 2.31591,-0.45267 -8.62002,1.74753 0.6865,-0.13793 0.77357,-0.15672 -3.09105,0.62888 -2.31387,0.47444 3.1287,-0.62173 1.76526,-0.41842 2.99971,-0.59877 0.43397,-0.047 0.88308,-0.0657 1.31504,-0.11575 0.43918,-0.0528 0.89688,-0.075 1.3571,-0.0865 0.49066,-0.0212 0.95202,0.02 1.41666,0.0697 0,0 -2.45893,0.59966 -2.45893,0.59966 l 0,0 c -0.4457,-0.0434 -0.89398,-0.0604 -1.35498,-0.037 -0.4488,0.0181 -0.88872,0.0514 -1.31878,0.10126 -0.43242,0.0386 -0.87987,0.0623 -1.28841,0.1282 -0.071,0.0127 -0.28144,0.0525 -0.21292,0.0382 0.77114,-0.16125 3.09946,-0.63582 2.32114,-0.47901 -0.92996,0.18735 -1.84745,0.38247 -2.77608,0.57067 -1.49873,0.30373 8.77572,-1.80201 -0.47207,0.0942 -0.0743,0.0151 -0.15263,0.0276 -0.22895,0.0414 -0.3977,0.0643 -0.79909,0.12842 -1.23055,0.15831 -0.4391,0.0256 -0.88531,0.0493 -1.32838,0.0204 -0.5171,-0.0297 -1.0256,-0.0737 -1.53239,-0.12057 C 21.87095,1.34607 21.44211,1.30627 21.02968,1.24771 20.54726,1.19131 20.06786,1.12883 19.56134,1.105 18.7772,1.0677 17.98969,1.0383 17.20306,1.0087 14.63636,0.9381 12.06077,0.9341 9.48838,0.9123 7.14058,0.8839 4.78868,0.8512 2.46051,0.73188 1.63588,0.70248 0.81845,0.66048 0,0.61447 c 0,0 2.4373,-0.61435 2.4373,-0.61435 z"
         inkscape:connector-curvature="0" />
      <path
         style="fill:#000000;fill-opacity:1;stroke:none"
         id="path7748"
         d="m 16.7571,5.36151 c 1.01987,0.0139 2.03806,0.0423 3.05807,0.0583 0.62838,0.01 1.25727,0.0129 1.88616,0.0135 0.41749,1.5e-4 0.83498,-7.9e-4 1.25247,-1.6e-4 0.45112,1.6e-4 0.90223,-1.6e-4 1.35334,-3.2e-4 0.42183,-0.0117 0.82925,0.0288 1.24387,0.0494 0.40448,0.0222 0.79756,0.0616 1.2059,0.0792 0.4117,1.3e-4 0.80677,0.0298 1.20977,0.0549 0.39493,0.0232 0.79543,0.0276 1.19476,0.0305 0.42805,0.0356 0.86255,0.0534 1.30034,0.0639 0.434,0.006 0.86356,-0.032 1.29558,-0.0478 0.0691,-0.002 0.13895,-0.002 0.20741,-0.006 0.21021,-0.0121 0.88389,-0.14988 0.57361,-0.087 -2.32063,0.46989 -3.12812,0.64979 -2.15162,0.43373 0.91682,-0.18774 1.83365,-0.37548 2.75049,-0.56322 0,0 -2.32117,0.66573 -2.32117,0.66573 l 0,0 c 0.78284,-0.1619 1.56567,-0.32379 2.34851,-0.48569 -1.20803,0.26454 -2.35378,0.63718 -3.80096,0.67641 -0.43993,0.0195 -0.88104,0.0504 -1.32578,0.0303 -0.43476,-0.0142 -0.86292,-0.0422 -1.29637,-0.0584 -0.40863,-0.006 -0.81739,-0.0156 -1.21969,-0.0433 -0.39953,-0.0258 -0.80024,-0.0372 -1.20387,-0.0518 -0.40437,-0.0235 -0.79951,-0.063 -1.20695,-0.0798 -0.40397,-0.0229 -0.80531,-0.0473 -1.21672,-0.0369 -0.45069,-1.3e-4 -0.90138,-4.8e-4 -1.35207,1.6e-4 -0.41773,9.4e-4 -0.8355,7.8e-4 -1.25322,-0.001 -0.62022,-0.004 -1.24008,-0.0124 -1.8593,-0.0257 -1.02616,-0.0211 -2.0535,-0.0535 -3.08197,-0.0456 0,0 2.40941,-0.62348 2.40941,-0.62348 z"
         inkscape:connector-curvature="0" />
      <path
         style="fill:#000000;fill-opacity:1;stroke:none"
         id="path7752"
         d="m 6.07074,9.15917 c 2.38154,0.003 4.76005,-0.13907 7.09239,-0.29915 4.03419,-0.33173 8.06039,-0.67436 12.10145,-0.99533 1.96768,-0.11986 3.87309,-0.36325 5.86087,-0.44073 0.5972,-0.0162 1.13826,0.0668 1.7015,0.11925 0.40043,0.019 0.79008,0.0519 1.1863,0.0793 0.59414,0.0201 1.19674,-0.009 1.79142,-0.0233 0.4868,-0.0267 0.95612,-0.001 1.43666,0.0226 0.44968,0.0213 0.90316,0.0277 1.35622,0.0311 0.40884,0.002 0.81775,0.002 1.22662,0.002 0.40954,-10e-5 0.81908,-6.3e-4 1.22861,4e-5 0.52009,0.029 1.02079,0.0879 1.54116,0.11873 0.51013,0.002 0.96026,0.0747 1.42802,0.1373 0.32082,0.0561 0.65419,0.0997 0.99771,0.13388 0,0 -2.46026,0.59737 -2.46026,0.59737 l 0,0 c -0.34052,-0.0409 -0.67099,-0.09 -1.00126,-0.14035 -0.45872,-0.0605 -0.91628,-0.10557 -1.40579,-0.12053 -0.50202,-0.0367 -0.99509,-0.0989 -1.51099,-0.10234 -0.4106,7.9e-4 -0.82119,6.3e-4 -1.23179,7.9e-4 -0.41011,-7e-5 -0.82033,2e-5 -1.23029,-0.005 C 35.72066,8.2688 35.26255,8.2572 34.80787,8.234 34.34247,8.2123 33.88134,8.2088 33.41308,8.227 32.79897,8.2407 32.17448,8.2676 31.56377,8.23 31.16555,8.1996 30.76236,8.1797 30.36772,8.1439 29.84145,8.0881 29.32516,8.02548 28.76458,8.0493 26.8538,8.1256 25.00369,8.33418 23.11055,8.44803 19.05657,8.76138 15.02392,9.10586 10.98712,9.44606 8.56965,9.61118 6.12259,9.75462 3.6581,9.78363 c 0,0 2.41264,-0.62431 2.41264,-0.62431 z"
         inkscape:connector-curvature="0" />
      <path
         style="fill:#000000;fill-opacity:1;stroke:none"
         id="path7754"
         d="m 39.86157,5.58963 c 0.70672,0.0294 1.41467,0.0416 2.11881,0.0786 0.48598,0.0431 0.96784,0.0174 1.45618,-1.6e-4 0.3855,0.004 0.74002,-0.0321 1.11018,-0.0614 0.40083,-0.0272 0.80983,-0.0279 1.21625,-0.0283 0.83016,0.009 1.65609,7.9e-4 2.47675,-0.046 0.5289,-0.0675 1.11398,-0.0843 1.63125,-0.16284 0,0 -2.36787,0.65452 -2.36787,0.65452 l 0,0 c -0.54269,0.0444 -1.07581,0.10313 -1.6248,0.13737 -0.83614,0.0355 -1.67482,0.0381 -2.516,0.0412 -0.40091,0.006 -0.80382,0.0134 -1.19438,0.0492 -0.37171,0.031 -0.74792,0.0385 -1.12798,0.0489 -0.49868,0.0156 -0.99006,0.0156 -1.48216,-0.0242 -0.70806,-0.0359 -1.42224,-0.0466 -2.13353,-0.0723 0,0 2.4373,-0.61435 2.4373,-0.61435 z"
         inkscape:connector-curvature="0" />
      <path
         style="fill:#000000;fill-opacity:1;stroke:none"
         id="path7756"
         d="m 39.50194,0.14307 c 0.98544,0.0493 1.97691,0.0379 2.96703,0.0211 0.65228,-0.0133 1.30455,-0.0263 1.95773,-0.0322 0.54351,-0.004 1.0623,0.0758 1.5799,0.12668 0.78108,0.0726 1.575,0.082 2.37316,0.0526 0.93442,-0.0513 1.84816,-0.13809 2.77482,-0.20325 0.58674,-0.0431 1.18589,-0.047 1.78243,-0.0494 0.52516,-0.006 1.04092,-0.006 1.55861,0.0258 0.43047,0.016 0.83681,0.0682 1.26366,0.0917 0.83765,0.0261 1.679,-0.0234 2.50913,-0.0602 0.62545,-0.0419 1.23867,-0.0434 1.8665,-0.0173 0.36248,0.0379 0.71772,0.0909 1.0609,0.14775 0,0 -2.48328,0.58793 -2.48328,0.58793 l 0,0 c -0.32621,-0.0487 -0.65269,-0.1048 -1.00658,-0.12112 -0.60281,-0.0208 -1.19792,-9.4e-4 -1.79711,0.0288 -0.85712,0.035 -1.72922,0.0838 -2.5909,0.043 -0.42027,-0.0297 -0.83223,-0.0733 -1.25987,-0.0895 -0.50386,-0.0237 -1.01206,-0.0146 -1.51914,-0.0136 -0.5841,0.006 -1.16811,0.0181 -1.74138,0.0617 -0.92496,0.0658 -1.84128,0.14928 -2.77917,0.18978 -0.82816,0.0197 -1.65226,0.003 -2.45577,-0.0775 -0.50408,-0.0502 -1.01021,-0.11296 -1.54148,-0.098 -0.64027,0.006 -1.28007,0.0155 -1.92002,0.0244 -1.00993,0.0117 -2.01886,0.0118 -3.02575,-0.0241 0,0 2.42658,-0.61486 2.42658,-0.61486 z"
         inkscape:connector-curvature="0" />
      <path
         style="fill:#000000;fill-opacity:1;stroke:none"
         id="path7758"
         d="m 49.29642,7.92663 c 0.63078,-0.0243 1.26311,-0.0403 1.89691,-0.0496 0.49824,-0.007 0.99686,-0.008 1.49539,-0.008 0.47508,-0.0227 0.8486,0.0436 1.25918,0.11629 0.44626,0.12136 0.93663,0.17595 1.48132,0.21251 0.48927,0.0286 0.98564,0.0315 1.48017,0.0323 0.58197,0.016 1.14094,-0.0422 1.7047,-0.0839 0.49885,-0.0383 1.00677,-0.0537 1.51561,-0.0604 0.53689,0.007 1.06932,-0.0175 1.60234,-0.0365 0,0 -2.37788,0.62794 -2.37788,0.62794 l 0,0 c -0.54205,0.0182 -1.08392,0.0345 -1.62866,0.037 -0.49568,0.0106 -0.98867,0.0317 -1.4742,0.0698 -0.58011,0.0423 -1.16068,0.0846 -1.75697,0.0689 -0.5034,-0.005 -1.00801,-0.0144 -1.50188,-0.0521 -0.55414,-0.0466 -1.05865,-0.1177 -1.53306,-0.23103 -0.38502,-0.065 -0.75425,-0.0905 -1.18303,-0.0764 -0.49189,3.2e-4 -0.98392,0.001 -1.47546,0.009 -0.63465,0.011 -1.2689,0.0282 -1.89813,0.0604 0,0 2.39365,-0.63574 2.39365,-0.63574 z"
         inkscape:connector-curvature="0" />
    </pattern>
  </defs>
  <metadata
     id="metadata7">
    <rdf:RDF>
      <cc:Work
         rdf:about="">
        <dc:format>image/svg+xml</dc:format>
        <dc:type
           rdf:resource="http://purl.org/dc/dcmitype/StillImage" />
        <dc:title></dc:title>
      </cc:Work>
    </rdf:RDF>
  </metadata>
  <g
     id="layer1"
     inkscape:groupmode="layer"
     inkscape:label="Layer 1">
    <rect
       y="92.906082"
       x="164.17358"
       height="626.06805"
       width="487.30081"
       id="rect5205"
       style="fill:none" />
  </g>
  <path
     id="path5290"
     sodipodi:nodetypes="cccccccsc"
     inkscape:connector-curvature="0"
     d="m 512.00287,225.39803 -48.47675,0 0,-146.26569 -436.290711,0 0,919.38427 436.290711,0 0,-752.22348 c 0,0 32.31782,0 48.47675,0 48.47674,0 48.47674,41.79019 48.47674,41.79019"
     style="fill:none;stroke:#000000;stroke-width:2.2504735px;stroke-linecap:butt;stroke-linejoin:miter;stroke-opacity:1" />
  <path
     sodipodi:nodetypes="cc"
     inkscape:connector-curvature="0"
     id="path5298"
     d="m 512.00287,225.39803 c 48.47674,0 72.71511,20.8951 72.71511,62.68529"
     style="fill:none;stroke:#000000;stroke-width:2.2504735px;stroke-linecap:butt;stroke-linejoin:miter;stroke-opacity:1" />
  <path
     inkscape:connector-curvature="0"
     id="path5300"
     d="m 560.47961,288.08332 0,585.06272"
     style="fill:none;stroke:#000000;stroke-width:2.2504735px;stroke-linecap:butt;stroke-linejoin:miter;stroke-opacity:1" />
  <path
     inkscape:connector-curvature="0"
     id="path5302"
     d="m 584.71798,288.08332 0,585.06272"
     style="fill:none;stroke:#000000;stroke-width:2.2504735px;stroke-linecap:butt;stroke-linejoin:miter;stroke-opacity:1" />
  <path
     sodipodi:nodetypes="cc"
     inkscape:connector-curvature="0"
     id="path5328"
     d="m 560.47961,873.14604 c 0,41.79019 24.23837,62.68528 72.71513,62.68528"
     style="fill:none;stroke:#000000;stroke-width:2.2504735px;stroke-linecap:butt;stroke-linejoin:miter;stroke-opacity:1" />
  <path
     sodipodi:nodetypes="ccc"
     inkscape:connector-curvature="0"
     id="path5330"
     d="m 584.71798,873.14604 c 0,31.34264 12.1192,41.79019 48.47676,41.79019 36.35755,0 48.47675,-10.44755 48.47675,-41.79019"
     style="fill:none;stroke:#000000;stroke-width:2.2504735px;stroke-linecap:butt;stroke-linejoin:miter;stroke-opacity:1" />
  <path
     sodipodi:nodetypes="cc"
     inkscape:connector-curvature="0"
     id="path5332"
     d="m 633.19474,935.83132 c 48.47675,0 72.71511,-20.89509 72.71511,-62.68528"
     style="fill:none;stroke:#000000;stroke-width:2.2504735px;stroke-linecap:butt;stroke-linejoin:miter;stroke-opacity:1" />
  <path
     inkscape:connector-curvature="0"
     id="path5334"
     d="m 681.67149,873.14604 0,-856.698999"
     style="fill:none;stroke:#000000;stroke-width:2.2504735px;stroke-linecap:butt;stroke-linejoin:miter;stroke-opacity:1" />
  <path
     inkscape:connector-curvature="0"
     id="path5336"
     d="m 705.90985,873.14604 0,-856.698999"
     style="fill:url(#pattern10759);fill-opacity:1;stroke:#000000;stroke-width:2.2504735px;stroke-linecap:butt;stroke-linejoin:miter;stroke-opacity:1" />
  <path
     inkscape:connector-curvature="0"
     id="path5681"
     d="m 560.47961,820.90829 24.23837,0 0,0"
     style="fill:none;stroke:#000000;stroke-width:2.2504735px;stroke-linecap:butt;stroke-linejoin:miter;stroke-opacity:1" />
  <path
     inkscape:connector-curvature="0"
     id="path5687"
     d="m 681.67149,58.237251 c 24.23836,0 24.23836,0 24.23836,0"
     style="fill:none;stroke:#000000;stroke-width:2.2504735px;stroke-linecap:butt;stroke-linejoin:miter;stroke-opacity:1" />
  <path
     inkscape:connector-curvature="0"
     id="path5754"
     d="m 626.11212,934.46391 c -0.69199,-0.0558 -3.09818,-0.24018 -5.34711,-0.40953 -17.09075,-1.28698 -31.06556,-6.29427 -40.76955,-14.60812 -9.93565,-8.51233 -15.20136,-19.03054 -17.45044,-34.85714 -0.47042,-3.31033 -0.55642,-7.5524 -0.67197,-33.14829 l -0.13259,-29.3522 10.861,0 10.861,0 0.11173,30.70796 c 0.10885,29.92879 0.12896,30.79394 0.78605,34.09732 0.76349,3.83756 1.94913,7.9387 2.88981,9.99614 4.89681,10.70968 13.9888,16.24054 30.13028,18.32893 10.75193,1.39111 27.55973,1.01763 36.88278,-0.81956 11.44941,-2.25621 18.85364,-6.92003 23.4349,-14.76137 2.06001,-3.52594 3.06926,-6.49412 4.33337,-12.74414 l 0.68554,-3.38939 0.088,-146.62534 0.088,-146.62533 10.85377,0 10.85378,0 -0.10568,145.40515 c -0.0951,130.93452 -0.15537,145.74247 -0.6055,148.79456 -0.77883,5.28012 -1.4829,8.52431 -2.63969,12.16294 -7.017,22.07147 -24.88365,34.42299 -53.99698,37.32903 -3.89326,0.38861 -18.3555,0.74322 -21.14053,0.51838 l 0,0 z"
     style="fill:url(#pattern10757);fill-opacity:1;stroke:none" />
  <path
     inkscape:connector-curvature="0"
     id="path5760"
     d="m 682.89302,613.64339 -0.008,-10.09771 1.97969,-0.77382 c 2.1524,-0.84133 3.11316,-1.78044 5.4961,-5.37219 0.67812,-1.02211 2.09897,-3.04804 3.15747,-4.50209 l 1.92455,-2.64373 -1.50201,0 c -1.23164,0 -1.64843,0.13417 -2.31548,0.74566 -0.73179,0.67076 -3.7731,4.7632 -6.50227,8.74949 -0.56337,0.8229 -1.29427,1.79905 -1.62418,2.1692 -0.5906,0.66262 -0.6,-0.51581 -0.60688,-75.99513 l -0.008,-76.66816 10.85152,0 10.85152,0 0,77.27368 0,77.27371 -1.65133,0.71892 c -3.08301,1.34222 -7.54508,4.28355 -10.50788,6.92663 -1.42207,1.26864 -3.88657,4.45679 -7.30579,9.45098 -2.40827,3.51763 -2.22318,4.11955 -2.23106,-7.25544 l 0,0 z"
     style="fill:url(#pattern10755);fill-opacity:1;stroke:none" />
  <path
     inkscape:connector-curvature="0"
     id="path5766"
     d="m 682.89302,466.40797 -0.008,-10.09773 1.97969,-0.77382 c 1.52615,-0.59653 2.23345,-1.07861 3.08713,-2.10411 1.22469,-1.47119 2.79661,-3.7183 2.79661,-3.99787 0,-0.0989 -0.77254,-0.1795 -1.71672,-0.1795 l -1.71668,0 -0.84563,1.28799 c -1.153,1.75608 -3.31648,4.67735 -3.46407,4.67735 -0.0662,0 -0.12019,-30.62657 -0.12019,-68.0591 l 0,-68.05909 10.8515,0 10.85153,0 0,68.73242 0,68.73241 -1.65134,0.71892 c -3.08299,1.34224 -7.54506,4.28355 -10.50786,6.92664 -1.42207,1.2686 -3.88657,4.45678 -7.30578,9.45097 -2.40828,3.51763 -2.2232,4.11953 -2.23108,-7.25544 l 0,0 z"
     style="fill:url(#pattern10753);fill-opacity:1;stroke:none" />
  <path
     inkscape:connector-curvature="0"
     id="path5772"
     d="m 682.89302,340.45797 -0.008,-9.96217 1.97969,-0.77382 c 2.07631,-0.81159 3.10356,-1.77872 5.08789,-4.79017 0.49133,-0.74567 1.5791,-2.29464 2.41726,-3.44218 0.83816,-1.14755 1.52395,-2.15419 1.52395,-2.23701 0,-0.0827 -0.7605,-0.15066 -1.69003,-0.15066 l -1.68999,0 -2.18052,3.05045 c -1.19928,1.67776 -2.64266,3.72375 -3.20751,4.54663 -0.56485,0.82291 -1.29696,1.79904 -1.62687,2.16923 -0.5904,0.66239 -0.6,-1.46393 -0.60688,-134.42836 l -0.008,-135.101392 10.85152,0 10.85152,0 0,135.571352 0,135.57133 -1.65133,0.71891 c -3.08301,1.34224 -7.54508,4.28357 -10.50788,6.92665 -1.42207,1.2686 -3.88657,4.45678 -7.30579,9.451 -2.40708,3.51585 -2.22318,4.10268 -2.23106,-7.11988 l 0,0 z"
     style="fill:url(#pattern10751);fill-opacity:1;stroke:none" />
  <path
     inkscape:connector-curvature="0"
     id="path5780"
     d="m 633.19474,820.90829 0,-762.671039"
     style="fill:none;stroke:#000000;stroke-width:2.2504735px;stroke-linecap:butt;stroke-linejoin:miter;stroke-opacity:1;marker-start:url(#Arrow1Mstart);marker-end:url(#Arrow1Mend)" />
  <path
     inkscape:connector-curvature="0"
     id="path7770"
     d="m 27.235409,538.82449 436.290711,0"
     style="fill:none;stroke:#000000;stroke-width:2.2504735px;stroke-linecap:butt;stroke-linejoin:miter;stroke-opacity:1" />
  <path
     inkscape:connector-curvature="0"
     id="path7778"
     d="m 28.454796,768.43181 0,-228.42139 216.492754,0 216.49273,0 0,228.42139 0,228.42143 -216.49273,0 -216.492754,0 0,-228.42143 z"
     style="fill:#cccccc;fill-opacity:1;stroke:none" />
  <g
     transform="matrix(4.8476746,0,0,4.1790193,-924.23089,110.28809)"
     ns0:text="Solution"
     ns0:preamble=""
     id="g8054">
    <defs
       id="defs8056">
      <g
         id="g8058">
        <symbol
           style="overflow:visible"
           overflow="visible"
           id="textext-ddd477ca-0">
          <path
             inkscape:connector-curvature="0"
             style="stroke:none"
             d=""
             id="path8061" />
        </symbol>
        <symbol
           style="overflow:visible"
           overflow="visible"
           id="textext-ddd477ca-1">
          <path
             inkscape:connector-curvature="0"
             style="stroke:none"
             d="m 3.484375,-3.875 -1.28125,-0.296875 c -0.625,-0.15625 -1,-0.6875 -1,-1.265625 0,-0.703125 0.53125,-1.3125 1.3125,-1.3125 1.65625,0 1.875,1.640625 1.9375,2.078125 0.015625,0.0625 0.015625,0.125 0.125,0.125 0.125,0 0.125,-0.046875 0.125,-0.234375 l 0,-2 c 0,-0.171875 0,-0.25 -0.109375,-0.25 -0.0625,0 -0.078125,0.015625 -0.140625,0.140625 l -0.359375,0.5625 C 3.796875,-6.625 3.390625,-7.03125 2.5,-7.03125 c -1.109375,0 -1.9375,0.875 -1.9375,1.9375 0,0.828125 0.53125,1.5625 1.296875,1.828125 0.109375,0.03125 0.625,0.15625 1.328125,0.328125 0.265625,0.0625 0.5625,0.140625 0.84375,0.5 0.203125,0.265625 0.3125,0.59375 0.3125,0.921875 0,0.703125 -0.5,1.421875 -1.34375,1.421875 -0.28125,0 -1.046875,-0.046875 -1.578125,-0.53125 C 0.84375,-1.171875 0.8125,-1.796875 0.8125,-2.15625 0.796875,-2.265625 0.71875,-2.265625 0.6875,-2.265625 c -0.125,0 -0.125,0.078125 -0.125,0.25 l 0,2 c 0,0.171875 0,0.234375 0.109375,0.234375 0.0625,0 0.078125,-0.015625 0.140625,-0.125 0,-0.015625 0.03125,-0.046875 0.359375,-0.578125 0.3125,0.34375 0.953125,0.703125 1.84375,0.703125 1.15625,0 1.953125,-0.96875 1.953125,-2.078125 0,-0.984375 -0.65625,-1.8125 -1.484375,-2.015625 z"
             id="path8064" />
        </symbol>
        <symbol
           style="overflow:visible"
           overflow="visible"
           id="textext-ddd477ca-2">
          <path
             inkscape:connector-curvature="0"
             style="stroke:none"
             d="M 4.6875,-2.140625 C 4.6875,-3.40625 3.703125,-4.46875 2.5,-4.46875 c -1.25,0 -2.21875,1.09375 -2.21875,2.328125 0,1.296875 1.03125,2.25 2.203125,2.25 1.203125,0 2.203125,-0.984375 2.203125,-2.25 z m -2.1875,2 c -0.4375,0 -0.875,-0.203125 -1.140625,-0.671875 -0.25,-0.4375 -0.25,-1.046875 -0.25,-1.40625 0,-0.390625 0,-0.921875 0.234375,-1.359375 C 1.609375,-4.03125 2.078125,-4.25 2.484375,-4.25 c 0.4375,0 0.859375,0.21875 1.125,0.65625 0.265625,0.421875 0.265625,1 0.265625,1.375 0,0.359375 0,0.90625 -0.21875,1.34375 C 3.421875,-0.421875 2.984375,-0.140625 2.5,-0.140625 z"
             id="path8067" />
        </symbol>
        <symbol
           style="overflow:visible"
           overflow="visible"
           id="textext-ddd477ca-3">
          <path
             inkscape:connector-curvature="0"
             style="stroke:none"
             d="m 1.765625,-6.921875 -1.4375,0.109375 0,0.3125 c 0.703125,0 0.78125,0.0625 0.78125,0.5625 l 0,5.1875 c 0,0.4375 -0.109375,0.4375 -0.78125,0.4375 l 0,0.3125 C 0.65625,-0.015625 1.1875,-0.03125 1.4375,-0.03125 c 0.25,0 0.734375,0.015625 1.109375,0.03125 l 0,-0.3125 c -0.671875,0 -0.78125,0 -0.78125,-0.4375 z"
             id="path8070" />
        </symbol>
        <symbol
           style="overflow:visible"
           overflow="visible"
           id="textext-ddd477ca-4">
          <path
             inkscape:connector-curvature="0"
             style="stroke:none"
             d="m 3.890625,-0.78125 0,0.890625 L 5.328125,0 l 0,-0.3125 C 4.640625,-0.3125 4.5625,-0.375 4.5625,-0.875 l 0,-3.53125 -1.46875,0.109375 0,0.3125 c 0.6875,0 0.78125,0.0625 0.78125,0.5625 l 0,1.765625 c 0,0.875 -0.484375,1.546875 -1.21875,1.546875 -0.828125,0 -0.875,-0.46875 -0.875,-0.984375 l 0,-3.3125 -1.46875,0.109375 0,0.3125 c 0.78125,0 0.78125,0.03125 0.78125,0.90625 l 0,1.5 c 0,0.78125 0,1.6875 1.515625,1.6875 0.5625,0 1,-0.28125 1.28125,-0.890625 z"
             id="path8073" />
        </symbol>
        <symbol
           style="overflow:visible"
           overflow="visible"
           id="textext-ddd477ca-5">
          <path
             inkscape:connector-curvature="0"
             style="stroke:none"
             d="m 1.71875,-3.984375 1.4375,0 0,-0.3125 -1.4375,0 0,-1.828125 -0.25,0 c 0,0.8125 -0.296875,1.875 -1.28125,1.921875 l 0,0.21875 0.84375,0 0,2.75 c 0,1.21875 0.9375,1.34375 1.296875,1.34375 0.703125,0 0.984375,-0.703125 0.984375,-1.34375 l 0,-0.5625 -0.25,0 0,0.546875 c 0,0.734375 -0.296875,1.109375 -0.671875,1.109375 -0.671875,0 -0.671875,-0.90625 -0.671875,-1.078125 z"
             id="path8076" />
        </symbol>
        <symbol
           style="overflow:visible"
           overflow="visible"
           id="textext-ddd477ca-6">
          <path
             inkscape:connector-curvature="0"
             style="stroke:none"
             d="M 1.765625,-4.40625 0.375,-4.296875 l 0,0.3125 c 0.640625,0 0.734375,0.0625 0.734375,0.546875 l 0,2.6875 c 0,0.4375 -0.109375,0.4375 -0.78125,0.4375 l 0,0.3125 C 0.640625,-0.015625 1.1875,-0.03125 1.421875,-0.03125 1.78125,-0.03125 2.125,-0.015625 2.46875,0 l 0,-0.3125 c -0.671875,0 -0.703125,-0.046875 -0.703125,-0.4375 z m 0.03125,-1.734375 c 0,-0.3125 -0.234375,-0.53125 -0.515625,-0.53125 -0.3125,0 -0.53125,0.265625 -0.53125,0.53125 0,0.265625 0.21875,0.53125 0.53125,0.53125 0.28125,0 0.515625,-0.21875 0.515625,-0.53125 z"
             id="path8079" />
        </symbol>
        <symbol
           style="overflow:visible"
           overflow="visible"
           id="textext-ddd477ca-7">
          <path
             inkscape:connector-curvature="0"
             style="stroke:none"
             d="m 1.09375,-3.421875 0,2.671875 c 0,0.4375 -0.109375,0.4375 -0.78125,0.4375 l 0,0.3125 c 0.359375,-0.015625 0.859375,-0.03125 1.140625,-0.03125 0.25,0 0.765625,0.015625 1.109375,0.03125 l 0,-0.3125 c -0.671875,0 -0.78125,0 -0.78125,-0.4375 l 0,-1.84375 C 1.78125,-3.625 2.5,-4.1875 3.125,-4.1875 c 0.640625,0 0.75,0.53125 0.75,1.109375 l 0,2.328125 c 0,0.4375 -0.109375,0.4375 -0.78125,0.4375 l 0,0.3125 c 0.34375,-0.015625 0.859375,-0.03125 1.125,-0.03125 0.25,0 0.78125,0.015625 1.109375,0.03125 l 0,-0.3125 c -0.515625,0 -0.765625,0 -0.765625,-0.296875 l 0,-1.90625 c 0,-0.859375 0,-1.15625 -0.3125,-1.515625 -0.140625,-0.171875 -0.46875,-0.375 -1.046875,-0.375 C 2.46875,-4.40625 2,-3.984375 1.71875,-3.359375 l 0,-1.046875 -1.40625,0.109375 0,0.3125 c 0.703125,0 0.78125,0.0625 0.78125,0.5625 z"
             id="path8082" />
        </symbol>
      </g>
    </defs>
    <g
       id="textext-ddd477ca-8">
      <g
         style="fill:#000000;fill-opacity:1"
         id="g8085">
        <use
           height="1052.3622"
           width="744.09448"
           xlink:href="#textext-ddd477ca-1"
           x="223.43201"
           y="134.765"
           id="use8087" />
        <use
           height="1052.3622"
           width="744.09448"
           xlink:href="#textext-ddd477ca-2"
           x="228.96722"
           y="134.765"
           id="use8089" />
        <use
           height="1052.3622"
           width="744.09448"
           xlink:href="#textext-ddd477ca-3"
           x="233.94852"
           y="134.765"
           id="use8091" />
        <use
           height="1052.3622"
           width="744.09448"
           xlink:href="#textext-ddd477ca-4"
           x="236.71613"
           y="134.765"
           id="use8093" />
        <use
           height="1052.3622"
           width="744.09448"
           xlink:href="#textext-ddd477ca-5"
           x="242.25136"
           y="134.765"
           id="use8095" />
        <use
           height="1052.3622"
           width="744.09448"
           xlink:href="#textext-ddd477ca-6"
           x="246.12581"
           y="134.765"
           id="use8097" />
        <use
           height="1052.3622"
           width="744.09448"
           xlink:href="#textext-ddd477ca-2"
           x="248.89342"
           y="134.765"
           id="use8099" />
        <use
           height="1052.3622"
           width="744.09448"
           xlink:href="#textext-ddd477ca-7"
           x="253.87471"
           y="134.765"
           id="use8101" />
      </g>
    </g>
  </g>
  <g
     id="g8256"
     ns0:preamble=""
     ns0:text="Vapour"
     transform="matrix(4.8476746,0,0,4.1790193,-916.95939,-369.34937)">
    <defs
       id="defs8258">
      <g
         id="g8260">
        <symbol
           id="textext-eb5f9ef0-0"
           overflow="visible"
           style="overflow:visible">
          <path
             id="path8263"
             d=""
             style="stroke:none"
             inkscape:connector-curvature="0" />
        </symbol>
        <symbol
           id="textext-eb5f9ef0-1"
           overflow="visible"
           style="overflow:visible">
          <path
             id="path8266"
             d="M 6.1875,-5.828125 C 6.328125,-6.203125 6.59375,-6.484375 7.28125,-6.5 l 0,-0.3125 c -0.3125,0.03125 -0.71875,0.03125 -0.96875,0.03125 -0.296875,0 -0.875,-0.015625 -1.140625,-0.03125 l 0,0.3125 C 5.6875,-6.484375 5.90625,-6.234375 5.90625,-6 c 0,0.078125 -0.03125,0.140625 -0.046875,0.203125 L 4.03125,-1 2.125,-6.03125 C 2.0625,-6.171875 2.0625,-6.1875 2.0625,-6.203125 2.0625,-6.5 2.625,-6.5 2.875,-6.5 l 0,-0.3125 c -0.359375,0.03125 -1.046875,0.03125 -1.421875,0.03125 -0.46875,0 -0.90625,-0.015625 -1.265625,-0.03125 l 0,0.3125 c 0.65625,0 0.84375,0 0.984375,0.375 L 3.484375,0 c 0.0625,0.1875 0.109375,0.21875 0.25,0.21875 0.15625,0 0.1875,-0.046875 0.234375,-0.1875 z"
             style="stroke:none"
             inkscape:connector-curvature="0" />
        </symbol>
        <symbol
           id="textext-eb5f9ef0-2"
           overflow="visible"
           style="overflow:visible">
          <path
             id="path8269"
             d="m 3.3125,-0.75 c 0.046875,0.390625 0.3125,0.8125 0.78125,0.8125 0.21875,0 0.828125,-0.140625 0.828125,-0.953125 l 0,-0.5625 -0.25,0 0,0.5625 c 0,0.578125 -0.25,0.640625 -0.359375,0.640625 -0.328125,0 -0.375,-0.453125 -0.375,-0.5 l 0,-1.984375 c 0,-0.421875 0,-0.8125 -0.359375,-1.1875 C 3.1875,-4.3125 2.6875,-4.46875 2.21875,-4.46875 c -0.828125,0 -1.515625,0.46875 -1.515625,1.125 0,0.296875 0.203125,0.46875 0.46875,0.46875 0.28125,0 0.453125,-0.203125 0.453125,-0.453125 0,-0.125 -0.046875,-0.453125 -0.515625,-0.453125 C 1.390625,-4.140625 1.875,-4.25 2.1875,-4.25 c 0.5,0 1.0625,0.390625 1.0625,1.28125 l 0,0.359375 c -0.515625,0.03125 -1.203125,0.0625 -1.828125,0.359375 -0.75,0.34375 -1,0.859375 -1,1.296875 0,0.8125 0.96875,1.0625 1.59375,1.0625 0.65625,0 1.109375,-0.40625 1.296875,-0.859375 z M 3.25,-2.390625 l 0,1 c 0,0.9375 -0.71875,1.28125 -1.171875,1.28125 -0.484375,0 -0.890625,-0.34375 -0.890625,-0.84375 0,-0.546875 0.421875,-1.375 2.0625,-1.4375 z"
             style="stroke:none"
             inkscape:connector-curvature="0" />
        </symbol>
        <symbol
           id="textext-eb5f9ef0-3"
           overflow="visible"
           style="overflow:visible">
          <path
             id="path8272"
             d="m 1.71875,-3.75 0,-0.65625 -1.4375,0.109375 0,0.3125 c 0.703125,0 0.78125,0.0625 0.78125,0.5 l 0,4.65625 C 1.0625,1.625 0.953125,1.625 0.28125,1.625 l 0,0.3125 C 0.625,1.921875 1.140625,1.90625 1.390625,1.90625 c 0.28125,0 0.78125,0.015625 1.125,0.03125 l 0,-0.3125 C 1.859375,1.625 1.75,1.625 1.75,1.171875 l 0,-1.765625 c 0.046875,0.171875 0.46875,0.703125 1.21875,0.703125 1.1875,0 2.21875,-0.984375 2.21875,-2.265625 0,-1.265625 -0.953125,-2.25 -2.078125,-2.25 -0.78125,0 -1.203125,0.4375 -1.390625,0.65625 z m 0.03125,2.609375 0,-2.21875 C 2.03125,-3.875 2.515625,-4.15625 3.03125,-4.15625 c 0.734375,0 1.328125,0.875 1.328125,2 0,1.203125 -0.6875,2.046875 -1.421875,2.046875 -0.40625,0 -0.78125,-0.203125 -1.046875,-0.609375 C 1.75,-0.921875 1.75,-0.9375 1.75,-1.140625 z"
             style="stroke:none"
             inkscape:connector-curvature="0" />
        </symbol>
        <symbol
           id="textext-eb5f9ef0-4"
           overflow="visible"
           style="overflow:visible">
          <path
             id="path8275"
             d="M 4.6875,-2.140625 C 4.6875,-3.40625 3.703125,-4.46875 2.5,-4.46875 c -1.25,0 -2.21875,1.09375 -2.21875,2.328125 0,1.296875 1.03125,2.25 2.203125,2.25 1.203125,0 2.203125,-0.984375 2.203125,-2.25 z m -2.1875,2 c -0.4375,0 -0.875,-0.203125 -1.140625,-0.671875 -0.25,-0.4375 -0.25,-1.046875 -0.25,-1.40625 0,-0.390625 0,-0.921875 0.234375,-1.359375 C 1.609375,-4.03125 2.078125,-4.25 2.484375,-4.25 c 0.4375,0 0.859375,0.21875 1.125,0.65625 0.265625,0.421875 0.265625,1 0.265625,1.375 0,0.359375 0,0.90625 -0.21875,1.34375 C 3.421875,-0.421875 2.984375,-0.140625 2.5,-0.140625 z"
             style="stroke:none"
             inkscape:connector-curvature="0" />
        </symbol>
        <symbol
           id="textext-eb5f9ef0-5"
           overflow="visible"
           style="overflow:visible">
          <path
             id="path8278"
             d="m 3.890625,-0.78125 0,0.890625 L 5.328125,0 l 0,-0.3125 C 4.640625,-0.3125 4.5625,-0.375 4.5625,-0.875 l 0,-3.53125 -1.46875,0.109375 0,0.3125 c 0.6875,0 0.78125,0.0625 0.78125,0.5625 l 0,1.765625 c 0,0.875 -0.484375,1.546875 -1.21875,1.546875 -0.828125,0 -0.875,-0.46875 -0.875,-0.984375 l 0,-3.3125 -1.46875,0.109375 0,0.3125 c 0.78125,0 0.78125,0.03125 0.78125,0.90625 l 0,1.5 c 0,0.78125 0,1.6875 1.515625,1.6875 0.5625,0 1,-0.28125 1.28125,-0.890625 z"
             style="stroke:none"
             inkscape:connector-curvature="0" />
        </symbol>
        <symbol
           id="textext-eb5f9ef0-6"
           overflow="visible"
           style="overflow:visible">
          <path
             id="path8281"
             d="m 1.671875,-3.3125 0,-1.09375 -1.390625,0.109375 0,0.3125 c 0.703125,0 0.78125,0.0625 0.78125,0.5625 l 0,2.671875 c 0,0.4375 -0.109375,0.4375 -0.78125,0.4375 l 0,0.3125 c 0.390625,-0.015625 0.859375,-0.03125 1.140625,-0.03125 0.390625,0 0.859375,0 1.265625,0.03125 l 0,-0.3125 -0.21875,0 c -0.734375,0 -0.75,-0.109375 -0.75,-0.46875 l 0,-1.53125 c 0,-0.984375 0.421875,-1.875 1.171875,-1.875 0.0625,0 0.09375,0 0.109375,0.015625 -0.03125,0 -0.234375,0.125 -0.234375,0.390625 0,0.265625 0.21875,0.421875 0.4375,0.421875 0.171875,0 0.421875,-0.125 0.421875,-0.4375 0,-0.3125 -0.3125,-0.609375 -0.734375,-0.609375 -0.734375,0 -1.09375,0.671875 -1.21875,1.09375 z"
             style="stroke:none"
             inkscape:connector-curvature="0" />
        </symbol>
      </g>
    </defs>
    <g
       id="textext-eb5f9ef0-7">
      <g
         id="g8284"
         style="fill:#000000;fill-opacity:1">
        <use
           id="use8286"
           y="134.765"
           x="223.43201"
           xlink:href="#textext-eb5f9ef0-1"
           width="744.09448"
           height="1052.3622" />
      </g>
      <g
         id="g8288"
         style="fill:#000000;fill-opacity:1">
        <use
           id="use8290"
           y="134.765"
           x="230.07706"
           xlink:href="#textext-eb5f9ef0-2"
           width="744.09448"
           height="1052.3622" />
        <use
           id="use8292"
           y="134.765"
           x="235.05835"
           xlink:href="#textext-eb5f9ef0-3"
           width="744.09448"
           height="1052.3622" />
      </g>
      <g
         id="g8294"
         style="fill:#000000;fill-opacity:1">
        <use
           id="use8296"
           y="134.765"
           x="240.86256"
           xlink:href="#textext-eb5f9ef0-4"
           width="744.09448"
           height="1052.3622" />
        <use
           id="use8298"
           y="134.765"
           x="245.84387"
           xlink:href="#textext-eb5f9ef0-5"
           width="744.09448"
           height="1052.3622" />
        <use
           id="use8300"
           y="134.765"
           x="251.37909"
           xlink:href="#textext-eb5f9ef0-6"
           width="744.09448"
           height="1052.3622" />
      </g>
    </g>
  </g>
  <g
     transform="matrix(4.8476746,0,0,4.1790193,-477.36346,-104.36157)"
     ns0:text="$p$"
     ns0:preamble=""
     id="g8508">
    <defs
       id="defs8510">
      <g
         id="g8512">
        <symbol
           style="overflow:visible"
           overflow="visible"
           id="textext-49ca71ee-0">
          <path
             inkscape:connector-curvature="0"
             style="stroke:none"
             d=""
             id="path8515" />
        </symbol>
        <symbol
           style="overflow:visible"
           overflow="visible"
           id="textext-49ca71ee-1">
          <path
             inkscape:connector-curvature="0"
             style="stroke:none"
             d="M 0.453125,1.21875 C 0.375,1.5625 0.34375,1.625 -0.09375,1.625 c -0.109375,0 -0.21875,0 -0.21875,0.1875 0,0.078125 0.046875,0.125 0.125,0.125 0.265625,0 0.5625,-0.03125 0.828125,-0.03125 0.34375,0 0.671875,0.03125 1,0.03125 0.046875,0 0.171875,0 0.171875,-0.203125 C 1.8125,1.625 1.71875,1.625 1.578125,1.625 c -0.5,0 -0.5,-0.0625 -0.5,-0.15625 0,-0.125 0.421875,-1.75 0.484375,-2 0.125,0.296875 0.40625,0.640625 0.921875,0.640625 1.15625,0 2.40625,-1.453125 2.40625,-2.921875 0,-0.9375 -0.578125,-1.59375 -1.328125,-1.59375 -0.5,0 -0.984375,0.359375 -1.3125,0.75 -0.09375,-0.546875 -0.53125,-0.75 -0.890625,-0.75 -0.46875,0 -0.65625,0.390625 -0.734375,0.5625 C 0.4375,-3.5 0.3125,-2.90625 0.3125,-2.875 c 0,0.109375 0.09375,0.109375 0.109375,0.109375 0.109375,0 0.109375,-0.015625 0.171875,-0.234375 0.171875,-0.703125 0.375,-1.1875 0.734375,-1.1875 0.171875,0 0.3125,0.078125 0.3125,0.453125 0,0.234375 -0.03125,0.34375 -0.078125,0.515625 z m 1.75,-4.328125 C 2.265625,-3.375 2.546875,-3.65625 2.71875,-3.8125 c 0.359375,-0.296875 0.640625,-0.375 0.8125,-0.375 0.390625,0 0.640625,0.34375 0.640625,0.9375 0,0.59375 -0.328125,1.734375 -0.515625,2.109375 -0.34375,0.703125 -0.8125,1.03125 -1.1875,1.03125 C 1.8125,-0.109375 1.6875,-0.9375 1.6875,-1 c 0,-0.015625 0,-0.03125 0.03125,-0.15625 z"
             id="path8518" />
        </symbol>
      </g>
    </defs>
    <g
       id="textext-49ca71ee-2">
      <g
         style="fill:#000000;fill-opacity:1"
         id="g8521">
        <use
           height="1052.3622"
           width="744.09448"
           xlink:href="#textext-49ca71ee-1"
           x="223.43201"
           y="134.765"
           id="use8523" />
      </g>
    </g>
  </g>
  <g
     ns0:text="$x_{\\mathrm{A}},\nx_{\\mathrm{B}}$"
     ns0:preamble=""
     transform="matrix(4.8476746,0,0,4.1790193,-911.45069,179.6218)"
     id="g9092">
    <defs
       id="defs9094">
      <g
         id="g9096">
        <symbol
           style="overflow:visible"
           overflow="visible"
           id="textext-bc53455e-0">
          <path
             inkscape:connector-curvature="0"
             style="stroke:none"
             d=""
             id="path9099" />
        </symbol>
        <symbol
           style="overflow:visible"
           overflow="visible"
           id="textext-bc53455e-1">
          <path
             inkscape:connector-curvature="0"
             style="stroke:none"
             d="M 3.328125,-3.015625 C 3.390625,-3.265625 3.625,-4.1875 4.3125,-4.1875 c 0.046875,0 0.296875,0 0.5,0.125 C 4.53125,-4 4.34375,-3.765625 4.34375,-3.515625 c 0,0.15625 0.109375,0.34375 0.375,0.34375 0.21875,0 0.53125,-0.171875 0.53125,-0.578125 0,-0.515625 -0.578125,-0.65625 -0.921875,-0.65625 -0.578125,0 -0.921875,0.53125 -1.046875,0.75 -0.25,-0.65625 -0.78125,-0.75 -1.078125,-0.75 -1.03125,0 -1.609375,1.28125 -1.609375,1.53125 0,0.109375 0.109375,0.109375 0.125,0.109375 0.078125,0 0.109375,-0.03125 0.125,-0.109375 0.34375,-1.0625 1,-1.3125 1.34375,-1.3125 0.1875,0 0.53125,0.09375 0.53125,0.671875 0,0.3125 -0.171875,0.96875 -0.53125,2.375 -0.15625,0.609375 -0.515625,1.03125 -0.953125,1.03125 -0.0625,0 -0.28125,0 -0.5,-0.125 0.25,-0.0625 0.46875,-0.265625 0.46875,-0.546875 0,-0.265625 -0.21875,-0.34375 -0.359375,-0.34375 -0.3125,0 -0.546875,0.25 -0.546875,0.578125 0,0.453125 0.484375,0.65625 0.921875,0.65625 0.671875,0 1.03125,-0.703125 1.046875,-0.75 0.125,0.359375 0.484375,0.75 1.078125,0.75 1.03125,0 1.59375,-1.28125 1.59375,-1.53125 0,-0.109375 -0.078125,-0.109375 -0.109375,-0.109375 -0.09375,0 -0.109375,0.046875 -0.140625,0.109375 -0.328125,1.078125 -1,1.3125 -1.3125,1.3125 -0.390625,0 -0.546875,-0.3125 -0.546875,-0.65625 0,-0.21875 0.046875,-0.4375 0.15625,-0.875 z"
             id="path9102" />
        </symbol>
        <symbol
           style="overflow:visible"
           overflow="visible"
           id="textext-bc53455e-2">
          <path
             inkscape:connector-curvature="0"
             style="stroke:none"
             d="m 2.03125,-0.015625 c 0,-0.65625 -0.25,-1.046875 -0.640625,-1.046875 -0.328125,0 -0.53125,0.25 -0.53125,0.53125 C 0.859375,-0.265625 1.0625,0 1.390625,0 1.5,0 1.640625,-0.046875 1.734375,-0.125 1.765625,-0.15625 1.78125,-0.15625 1.78125,-0.15625 c 0.015625,0 0.015625,0 0.015625,0.140625 0,0.75 -0.34375,1.34375 -0.671875,1.671875 -0.109375,0.109375 -0.109375,0.125 -0.109375,0.15625 0,0.078125 0.046875,0.109375 0.09375,0.109375 0.109375,0 0.921875,-0.765625 0.921875,-1.9375 z"
             id="path9105" />
        </symbol>
        <symbol
           style="overflow:visible"
           overflow="visible"
           id="textext-bc53455e-3">
          <path
             inkscape:connector-curvature="0"
             style="stroke:none"
             d=""
             id="path9108" />
        </symbol>
        <symbol
           style="overflow:visible"
           overflow="visible"
           id="textext-bc53455e-4">
          <path
             inkscape:connector-curvature="0"
             style="stroke:none"
             d="M 3.125,-4.8125 C 3.09375,-4.921875 3.0625,-4.96875 2.9375,-4.96875 c -0.140625,0 -0.15625,0.046875 -0.203125,0.15625 L 1.125,-0.734375 C 1.0625,-0.5625 0.9375,-0.25 0.3125,-0.25 l 0,0.25 C 0.546875,-0.015625 0.796875,-0.03125 1.03125,-0.03125 1.3125,-0.03125 1.828125,0 1.875,0 l 0,-0.25 c -0.3125,0 -0.515625,-0.140625 -0.515625,-0.328125 0,-0.0625 0.015625,-0.078125 0.046875,-0.140625 l 0.328125,-0.859375 1.984375,0 L 4.125,-0.5625 c 0,0.03125 0.03125,0.078125 0.03125,0.109375 0,0.203125 -0.375,0.203125 -0.5625,0.203125 l 0,0.25 C 3.9375,-0.015625 4.390625,-0.03125 4.625,-0.03125 4.953125,-0.03125 5.484375,0 5.546875,0 l 0,-0.25 -0.125,0 c -0.46875,0 -0.515625,-0.078125 -0.59375,-0.265625 z m -0.40625,0.71875 0.890625,2.265625 -1.78125,0 z"
             id="path9111" />
        </symbol>
        <symbol
           style="overflow:visible"
           overflow="visible"
           id="textext-bc53455e-5">
          <path
             inkscape:connector-curvature="0"
             style="stroke:none"
             d="m 0.421875,-4.765625 0,0.25 0.15625,0 c 0.546875,0 0.5625,0.078125 0.5625,0.328125 l 0,3.625 c 0,0.234375 -0.015625,0.3125 -0.5625,0.3125 l -0.15625,0 0,0.25 L 3.375,0 c 0.984375,0 1.703125,-0.609375 1.703125,-1.28125 0,-0.59375 -0.625,-1.109375 -1.46875,-1.203125 0.6875,-0.125 1.25,-0.546875 1.25,-1.09375 0,-0.625 -0.734375,-1.1875 -1.703125,-1.1875 z m 1.328125,2.1875 0,-1.65625 c 0,-0.21875 0,-0.28125 0.328125,-0.28125 l 1.03125,0 c 0.703125,0 1.0625,0.5 1.0625,0.9375 0,0.5 -0.46875,1 -1.265625,1 z M 2.078125,-0.25 C 1.75,-0.25 1.75,-0.3125 1.75,-0.515625 l 0,-1.859375 1.484375,0 c 0.734375,0 1.125,0.59375 1.125,1.078125 C 4.359375,-0.78125 3.890625,-0.25 3.125,-0.25 z"
             id="path9114" />
        </symbol>
      </g>
    </defs>
    <g
       id="textext-bc53455e-6">
      <g
         style="fill:#000000;fill-opacity:1"
         id="g9117">
        <use
           height="1052.3622"
           width="744.09448"
           xlink:href="#textext-bc53455e-1"
           x="223.43201"
           y="134.765"
           id="use9119" />
      </g>
      <g
         style="fill:#000000;fill-opacity:1"
         id="g9121">
        <use
           height="1052.3622"
           width="744.09448"
           xlink:href="#textext-bc53455e-4"
           x="229.12601"
           y="136.259"
           id="use9123" />
      </g>
      <g
         style="fill:#000000;fill-opacity:1"
         id="g9125">
        <use
           height="1052.3622"
           width="744.09448"
           xlink:href="#textext-bc53455e-2"
           x="235.505"
           y="134.765"
           id="use9127" />
      </g>
      <g
         style="fill:#000000;fill-opacity:1"
         id="g9129">
        <use
           height="1052.3622"
           width="744.09448"
           xlink:href="#textext-bc53455e-1"
           x="239.93637"
           y="134.765"
           id="use9131" />
      </g>
      <g
         style="fill:#000000;fill-opacity:1"
         id="g9133">
        <use
           height="1052.3622"
           width="744.09448"
           xlink:href="#textext-bc53455e-5"
           x="245.627"
           y="136.259"
           id="use9135" />
      </g>
    </g>
  </g>
  <g
     ns0:text="$y_{\\mathrm{A}},\ny_{\\mathrm{B}}$"
     ns0:preamble=""
     transform="matrix(4.8476746,0,0,4.1790193,-901.53501,-317.11165)"
     id="g9919">
    <defs
       id="defs9921">
      <g
         id="g9923">
        <symbol
           style="overflow:visible"
           overflow="visible"
           id="textext-05bbda8d-0">
          <path
             inkscape:connector-curvature="0"
             style="stroke:none"
             d=""
             id="path9926" />
        </symbol>
        <symbol
           style="overflow:visible"
           overflow="visible"
           id="textext-05bbda8d-1">
          <path
             inkscape:connector-curvature="0"
             style="stroke:none"
             d="m 4.84375,-3.796875 c 0.046875,-0.140625 0.046875,-0.15625 0.046875,-0.234375 0,-0.171875 -0.140625,-0.265625 -0.296875,-0.265625 -0.09375,0 -0.25,0.0625 -0.34375,0.203125 -0.015625,0.0625 -0.109375,0.359375 -0.140625,0.546875 -0.078125,0.25 -0.140625,0.53125 -0.203125,0.796875 l -0.453125,1.796875 c -0.03125,0.140625 -0.46875,0.84375 -1.125,0.84375 -0.5,0 -0.609375,-0.4375 -0.609375,-0.8125 C 1.71875,-1.375 1.890625,-2 2.21875,-2.875 2.375,-3.28125 2.421875,-3.390625 2.421875,-3.59375 c 0,-0.4375 -0.3125,-0.8125 -0.8125,-0.8125 -0.953125,0 -1.3125,1.453125 -1.3125,1.53125 0,0.109375 0.09375,0.109375 0.109375,0.109375 0.109375,0 0.109375,-0.03125 0.15625,-0.1875 0.28125,-0.9375 0.671875,-1.234375 1.015625,-1.234375 0.078125,0 0.25,0 0.25,0.3125 0,0.25 -0.109375,0.515625 -0.171875,0.703125 -0.40625,1.0625 -0.578125,1.625 -0.578125,2.09375 0,0.890625 0.625,1.1875 1.21875,1.1875 0.390625,0 0.71875,-0.171875 1,-0.453125 -0.125,0.515625 -0.25,1.015625 -0.640625,1.546875 -0.265625,0.328125 -0.640625,0.625 -1.09375,0.625 -0.140625,0 -0.59375,-0.03125 -0.765625,-0.421875 0.15625,0 0.296875,0 0.421875,-0.125 C 1.328125,1.203125 1.421875,1.0625 1.421875,0.875 1.421875,0.5625 1.15625,0.53125 1.0625,0.53125 0.828125,0.53125 0.5,0.6875 0.5,1.171875 c 0,0.5 0.4375,0.875 1.0625,0.875 1.015625,0 2.046875,-0.90625 2.328125,-2.03125 z"
             id="path9929" />
        </symbol>
        <symbol
           style="overflow:visible"
           overflow="visible"
           id="textext-05bbda8d-2">
          <path
             inkscape:connector-curvature="0"
             style="stroke:none"
             d="m 2.03125,-0.015625 c 0,-0.65625 -0.25,-1.046875 -0.640625,-1.046875 -0.328125,0 -0.53125,0.25 -0.53125,0.53125 C 0.859375,-0.265625 1.0625,0 1.390625,0 1.5,0 1.640625,-0.046875 1.734375,-0.125 1.765625,-0.15625 1.78125,-0.15625 1.78125,-0.15625 c 0.015625,0 0.015625,0 0.015625,0.140625 0,0.75 -0.34375,1.34375 -0.671875,1.671875 -0.109375,0.109375 -0.109375,0.125 -0.109375,0.15625 0,0.078125 0.046875,0.109375 0.09375,0.109375 0.109375,0 0.921875,-0.765625 0.921875,-1.9375 z"
             id="path9932" />
        </symbol>
        <symbol
           style="overflow:visible"
           overflow="visible"
           id="textext-05bbda8d-3">
          <path
             inkscape:connector-curvature="0"
             style="stroke:none"
             d=""
             id="path9935" />
        </symbol>
        <symbol
           style="overflow:visible"
           overflow="visible"
           id="textext-05bbda8d-4">
          <path
             inkscape:connector-curvature="0"
             style="stroke:none"
             d="M 3.125,-4.8125 C 3.09375,-4.921875 3.0625,-4.96875 2.9375,-4.96875 c -0.140625,0 -0.15625,0.046875 -0.203125,0.15625 L 1.125,-0.734375 C 1.0625,-0.5625 0.9375,-0.25 0.3125,-0.25 l 0,0.25 C 0.546875,-0.015625 0.796875,-0.03125 1.03125,-0.03125 1.3125,-0.03125 1.828125,0 1.875,0 l 0,-0.25 c -0.3125,0 -0.515625,-0.140625 -0.515625,-0.328125 0,-0.0625 0.015625,-0.078125 0.046875,-0.140625 l 0.328125,-0.859375 1.984375,0 L 4.125,-0.5625 c 0,0.03125 0.03125,0.078125 0.03125,0.109375 0,0.203125 -0.375,0.203125 -0.5625,0.203125 l 0,0.25 C 3.9375,-0.015625 4.390625,-0.03125 4.625,-0.03125 4.953125,-0.03125 5.484375,0 5.546875,0 l 0,-0.25 -0.125,0 c -0.46875,0 -0.515625,-0.078125 -0.59375,-0.265625 z m -0.40625,0.71875 0.890625,2.265625 -1.78125,0 z"
             id="path9938" />
        </symbol>
        <symbol
           style="overflow:visible"
           overflow="visible"
           id="textext-05bbda8d-5">
          <path
             inkscape:connector-curvature="0"
             style="stroke:none"
             d="m 0.421875,-4.765625 0,0.25 0.15625,0 c 0.546875,0 0.5625,0.078125 0.5625,0.328125 l 0,3.625 c 0,0.234375 -0.015625,0.3125 -0.5625,0.3125 l -0.15625,0 0,0.25 L 3.375,0 c 0.984375,0 1.703125,-0.609375 1.703125,-1.28125 0,-0.59375 -0.625,-1.109375 -1.46875,-1.203125 0.6875,-0.125 1.25,-0.546875 1.25,-1.09375 0,-0.625 -0.734375,-1.1875 -1.703125,-1.1875 z m 1.328125,2.1875 0,-1.65625 c 0,-0.21875 0,-0.28125 0.328125,-0.28125 l 1.03125,0 c 0.703125,0 1.0625,0.5 1.0625,0.9375 0,0.5 -0.46875,1 -1.265625,1 z M 2.078125,-0.25 C 1.75,-0.25 1.75,-0.3125 1.75,-0.515625 l 0,-1.859375 1.484375,0 c 0.734375,0 1.125,0.59375 1.125,1.078125 C 4.359375,-0.78125 3.890625,-0.25 3.125,-0.25 z"
             id="path9941" />
        </symbol>
      </g>
    </defs>
    <g
       id="textext-05bbda8d-6">
      <g
         style="fill:#000000;fill-opacity:1"
         id="g9944">
        <use
           height="1052.3622"
           width="744.09448"
           xlink:href="#textext-05bbda8d-1"
           x="223.43201"
           y="134.765"
           id="use9946" />
      </g>
      <g
         style="fill:#000000;fill-opacity:1"
         id="g9948">
        <use
           height="1052.3622"
           width="744.09448"
           xlink:href="#textext-05bbda8d-4"
           x="228.317"
           y="136.259"
           id="use9950" />
      </g>
      <g
         style="fill:#000000;fill-opacity:1"
         id="g9952">
        <use
           height="1052.3622"
           width="744.09448"
           xlink:href="#textext-05bbda8d-2"
           x="234.696"
           y="134.765"
           id="use9954" />
      </g>
      <g
         style="fill:#000000;fill-opacity:1"
         id="g9956">
        <use
           height="1052.3622"
           width="744.09448"
           xlink:href="#textext-05bbda8d-1"
           x="239.12737"
           y="134.765"
           id="use9958" />
      </g>
      <g
         style="fill:#000000;fill-opacity:1"
         id="g9960">
        <use
           height="1052.3622"
           width="744.09448"
           xlink:href="#textext-05bbda8d-5"
           x="244.008"
           y="136.259"
           id="use9962" />
      </g>
    </g>
  </g>
  <g
     id="g10387"
     transform="matrix(4.8476746,0,0,4.1790193,-963.23269,-255.37616)"
     ns0:preamble=""
     ns0:text="$p = p_{\\mathrm{A}}+p_{\\mathrm{B}}$">
    <defs
       id="defs10389">
      <g
         id="g10391">
        <symbol
           id="textext-76c74f8a-0"
           overflow="visible"
           style="overflow:visible">
          <path
             id="path10394"
             d=""
             style="stroke:none"
             inkscape:connector-curvature="0" />
        </symbol>
        <symbol
           id="textext-76c74f8a-1"
           overflow="visible"
           style="overflow:visible">
          <path
             id="path10397"
             d="M 0.453125,1.21875 C 0.375,1.5625 0.34375,1.625 -0.09375,1.625 c -0.109375,0 -0.21875,0 -0.21875,0.1875 0,0.078125 0.046875,0.125 0.125,0.125 0.265625,0 0.5625,-0.03125 0.828125,-0.03125 0.34375,0 0.671875,0.03125 1,0.03125 0.046875,0 0.171875,0 0.171875,-0.203125 C 1.8125,1.625 1.71875,1.625 1.578125,1.625 c -0.5,0 -0.5,-0.0625 -0.5,-0.15625 0,-0.125 0.421875,-1.75 0.484375,-2 0.125,0.296875 0.40625,0.640625 0.921875,0.640625 1.15625,0 2.40625,-1.453125 2.40625,-2.921875 0,-0.9375 -0.578125,-1.59375 -1.328125,-1.59375 -0.5,0 -0.984375,0.359375 -1.3125,0.75 -0.09375,-0.546875 -0.53125,-0.75 -0.890625,-0.75 -0.46875,0 -0.65625,0.390625 -0.734375,0.5625 C 0.4375,-3.5 0.3125,-2.90625 0.3125,-2.875 c 0,0.109375 0.09375,0.109375 0.109375,0.109375 0.109375,0 0.109375,-0.015625 0.171875,-0.234375 0.171875,-0.703125 0.375,-1.1875 0.734375,-1.1875 0.171875,0 0.3125,0.078125 0.3125,0.453125 0,0.234375 -0.03125,0.34375 -0.078125,0.515625 z m 1.75,-4.328125 C 2.265625,-3.375 2.546875,-3.65625 2.71875,-3.8125 c 0.359375,-0.296875 0.640625,-0.375 0.8125,-0.375 0.390625,0 0.640625,0.34375 0.640625,0.9375 0,0.59375 -0.328125,1.734375 -0.515625,2.109375 -0.34375,0.703125 -0.8125,1.03125 -1.1875,1.03125 C 1.8125,-0.109375 1.6875,-0.9375 1.6875,-1 c 0,-0.015625 0,-0.03125 0.03125,-0.15625 z"
             style="stroke:none"
             inkscape:connector-curvature="0" />
        </symbol>
        <symbol
           id="textext-76c74f8a-2"
           overflow="visible"
           style="overflow:visible">
          <path
             id="path10400"
             d=""
             style="stroke:none"
             inkscape:connector-curvature="0" />
        </symbol>
        <symbol
           id="textext-76c74f8a-3"
           overflow="visible"
           style="overflow:visible">
          <path
             id="path10403"
             d="m 6.84375,-3.265625 c 0.15625,0 0.34375,0 0.34375,-0.1875 C 7.1875,-3.65625 7,-3.65625 6.859375,-3.65625 l -5.96875,0 c -0.140625,0 -0.328125,0 -0.328125,0.203125 0,0.1875 0.1875,0.1875 0.328125,0.1875 z m 0.015625,1.9375 c 0.140625,0 0.328125,0 0.328125,-0.203125 0,-0.1875 -0.1875,-0.1875 -0.34375,-0.1875 l -5.953125,0 c -0.140625,0 -0.328125,0 -0.328125,0.1875 0,0.203125 0.1875,0.203125 0.328125,0.203125 z"
             style="stroke:none"
             inkscape:connector-curvature="0" />
        </symbol>
        <symbol
           id="textext-76c74f8a-4"
           overflow="visible"
           style="overflow:visible">
          <path
             id="path10406"
             d="m 4.078125,-2.296875 2.78125,0 C 7,-2.296875 7.1875,-2.296875 7.1875,-2.5 7.1875,-2.6875 7,-2.6875 6.859375,-2.6875 l -2.78125,0 0,-2.796875 c 0,-0.140625 0,-0.328125 -0.203125,-0.328125 -0.203125,0 -0.203125,0.1875 -0.203125,0.328125 l 0,2.796875 -2.78125,0 c -0.140625,0 -0.328125,0 -0.328125,0.1875 0,0.203125 0.1875,0.203125 0.328125,0.203125 l 2.78125,0 0,2.796875 c 0,0.140625 0,0.328125 0.203125,0.328125 0.203125,0 0.203125,-0.1875 0.203125,-0.328125 z"
             style="stroke:none"
             inkscape:connector-curvature="0" />
        </symbol>
        <symbol
           id="textext-76c74f8a-5"
           overflow="visible"
           style="overflow:visible">
          <path
             id="path10409"
             d=""
             style="stroke:none"
             inkscape:connector-curvature="0" />
        </symbol>
        <symbol
           id="textext-76c74f8a-6"
           overflow="visible"
           style="overflow:visible">
          <path
             id="path10412"
             d="M 3.125,-4.8125 C 3.09375,-4.921875 3.0625,-4.96875 2.9375,-4.96875 c -0.140625,0 -0.15625,0.046875 -0.203125,0.15625 L 1.125,-0.734375 C 1.0625,-0.5625 0.9375,-0.25 0.3125,-0.25 l 0,0.25 C 0.546875,-0.015625 0.796875,-0.03125 1.03125,-0.03125 1.3125,-0.03125 1.828125,0 1.875,0 l 0,-0.25 c -0.3125,0 -0.515625,-0.140625 -0.515625,-0.328125 0,-0.0625 0.015625,-0.078125 0.046875,-0.140625 l 0.328125,-0.859375 1.984375,0 L 4.125,-0.5625 c 0,0.03125 0.03125,0.078125 0.03125,0.109375 0,0.203125 -0.375,0.203125 -0.5625,0.203125 l 0,0.25 C 3.9375,-0.015625 4.390625,-0.03125 4.625,-0.03125 4.953125,-0.03125 5.484375,0 5.546875,0 l 0,-0.25 -0.125,0 c -0.46875,0 -0.515625,-0.078125 -0.59375,-0.265625 z m -0.40625,0.71875 0.890625,2.265625 -1.78125,0 z"
             style="stroke:none"
             inkscape:connector-curvature="0" />
        </symbol>
        <symbol
           id="textext-76c74f8a-7"
           overflow="visible"
           style="overflow:visible">
          <path
             id="path10415"
             d="m 0.421875,-4.765625 0,0.25 0.15625,0 c 0.546875,0 0.5625,0.078125 0.5625,0.328125 l 0,3.625 c 0,0.234375 -0.015625,0.3125 -0.5625,0.3125 l -0.15625,0 0,0.25 L 3.375,0 c 0.984375,0 1.703125,-0.609375 1.703125,-1.28125 0,-0.59375 -0.625,-1.109375 -1.46875,-1.203125 0.6875,-0.125 1.25,-0.546875 1.25,-1.09375 0,-0.625 -0.734375,-1.1875 -1.703125,-1.1875 z m 1.328125,2.1875 0,-1.65625 c 0,-0.21875 0,-0.28125 0.328125,-0.28125 l 1.03125,0 c 0.703125,0 1.0625,0.5 1.0625,0.9375 0,0.5 -0.46875,1 -1.265625,1 z M 2.078125,-0.25 C 1.75,-0.25 1.75,-0.3125 1.75,-0.515625 l 0,-1.859375 1.484375,0 c 0.734375,0 1.125,0.59375 1.125,1.078125 C 4.359375,-0.78125 3.890625,-0.25 3.125,-0.25 z"
             style="stroke:none"
             inkscape:connector-curvature="0" />
        </symbol>
      </g>
    </defs>
    <g
       id="textext-76c74f8a-8">
      <g
         id="g10418"
         style="fill:#000000;fill-opacity:1">
        <use
           id="use10420"
           y="134.765"
           x="223.43201"
           xlink:href="#textext-76c74f8a-1"
           width="744.09448"
           height="1052.3622" />
      </g>
      <g
         id="g10422"
         style="fill:#000000;fill-opacity:1">
        <use
           id="use10424"
           y="134.765"
           x="231.21201"
           xlink:href="#textext-76c74f8a-3"
           width="744.09448"
           height="1052.3622" />
      </g>
      <g
         id="g10426"
         style="fill:#000000;fill-opacity:1">
        <use
           id="use10428"
           y="134.765"
           x="241.728"
           xlink:href="#textext-76c74f8a-1"
           width="744.09448"
           height="1052.3622" />
      </g>
      <g
         id="g10430"
         style="fill:#000000;fill-opacity:1">
        <use
           id="use10432"
           y="136.259"
           x="246.74001"
           xlink:href="#textext-76c74f8a-6"
           width="744.09448"
           height="1052.3622" />
      </g>
      <g
         id="g10434"
         style="fill:#000000;fill-opacity:1">
        <use
           id="use10436"
           y="134.765"
           x="255.33299"
           xlink:href="#textext-76c74f8a-4"
           width="744.09448"
           height="1052.3622" />
      </g>
      <g
         id="g10438"
         style="fill:#000000;fill-opacity:1">
        <use
           id="use10440"
           y="134.765"
           x="265.29599"
           xlink:href="#textext-76c74f8a-1"
           width="744.09448"
           height="1052.3622" />
      </g>
      <g
         id="g10442"
         style="fill:#000000;fill-opacity:1">
        <use
           id="use10444"
           y="136.259"
           x="270.30801"
           xlink:href="#textext-76c74f8a-7"
           width="744.09448"
           height="1052.3622" />
      </g>
    </g>
  </g>
</svg>
